<svg xmlns="http://www.w3.org/2000/svg" aria-label="Asana logo" viewBox="0 0 188 39"><g><path d="M70.886 29.054c.114 1.307 1.15 2.974 2.95 2.974h1.047a.74.74 0 0 0 .525-.218c.139-.14.218-.33.219-.53V7.932a.751.751 0 0 0-.23-.503.735.735 0 0 0-.51-.205h-3.254a.735.735 0 0 0-.51.205.751.751 0 0 0-.23.503V9.83c-1.976-2.487-5.14-3.518-8.303-3.518a12.86 12.86 0 0 0-5.039.933 12.973 12.973 0 0 0-4.29 2.83 13.136 13.136 0 0 0-2.873 4.286 13.254 13.254 0 0 0 0 10.154 13.136 13.136 0 0 0 2.874 4.287 12.974 12.974 0 0 0 4.29 2.83 12.86 12.86 0 0 0 5.038.932c3.163 0 6.591-1.24 8.304-3.518l-.008.008Zm-8.284-1.071a8.374 8.374 0 0 1-4.74-1.349 8.511 8.511 0 0 1-3.189-3.791 8.622 8.622 0 0 1-.554-4.946 8.567 8.567 0 0 1 2.268-4.417 8.416 8.416 0 0 1 4.32-2.387 8.357 8.357 0 0 1 4.903.455 8.462 8.462 0 0 1 3.818 3.143 8.602 8.602 0 0 1 1.434 4.761 8.52 8.52 0 0 1-.6 3.237 8.45 8.45 0 0 1-1.782 2.759 8.344 8.344 0 0 1-2.69 1.858 8.27 8.27 0 0 1-3.188.677ZM123.947 29.054c.115 1.307 1.151 2.974 2.946 2.974h1.052a.734.734 0 0 0 .683-.461.758.758 0 0 0 .056-.286V7.93a.746.746 0 0 0-.227-.503.732.732 0 0 0-.508-.205h-3.258a.736.736 0 0 0-.507.207.75.75 0 0 0-.229.501V9.83c-1.997-2.487-5.14-3.518-8.304-3.518a12.86 12.86 0 0 0-5.038.933 12.97 12.97 0 0 0-4.29 2.83 13.136 13.136 0 0 0-2.873 4.286 13.25 13.25 0 0 0 0 10.154 13.136 13.136 0 0 0 2.873 4.287 12.972 12.972 0 0 0 4.29 2.83 12.86 12.86 0 0 0 5.038.932c3.164 0 6.592-1.24 8.304-3.518l-.008.008Zm-8.303-1.083a8.373 8.373 0 0 1-4.735-1.357 8.517 8.517 0 0 1-3.183-3.795 8.625 8.625 0 0 1-.548-4.944 8.567 8.567 0 0 1 2.272-4.414 8.422 8.422 0 0 1 4.321-2.382 8.355 8.355 0 0 1 4.9.458 8.453 8.453 0 0 1 3.815 3.143 8.604 8.604 0 0 1 1.434 4.76 8.546 8.546 0 0 1-.597 3.24 8.452 8.452 0 0 1-1.78 2.762 8.332 8.332 0 0 1-2.689 1.862 8.272 8.272 0 0 1-3.191.679l-.019-.012ZM183.263 29.054c.114 1.307 1.15 2.974 2.946 2.974h1.051a.73.73 0 0 0 .523-.219.74.74 0 0 0 .16-.242.74.74 0 0 0 .057-.286V7.93a.75.75 0 0 0-.229-.501.736.736 0 0 0-.507-.207h-3.258a.736.736 0 0 0-.507.207.749.749 0 0 0-.228.501V9.83c-1.997-2.487-5.141-3.518-8.304-3.518a12.865 12.865 0 0 0-5.039.933 12.977 12.977 0 0 0-4.289 2.83 13.139 13.139 0 0 0-2.874 4.286 13.25 13.25 0 0 0 0 10.154 13.139 13.139 0 0 0 2.874 4.287 12.978 12.978 0 0 0 4.289 2.83c1.602.645 3.315.962 5.039.932 3.163 0 6.591-1.24 8.304-3.518l-.008.008Zm-8.304-1.083a8.372 8.372 0 0 1-4.74-1.347 8.506 8.506 0 0 1-3.191-3.79 8.623 8.623 0 0 1-.557-4.946 8.572 8.572 0 0 1 2.268-4.419 8.414 8.414 0 0 1 4.32-2.388 8.356 8.356 0 0 1 4.903.455 8.454 8.454 0 0 1 3.818 3.142 8.594 8.594 0 0 1 1.435 4.762 8.484 8.484 0 0 1-2.369 5.995 8.303 8.303 0 0 1-5.867 2.548l-.02-.012ZM157.865 29.858V17.773c0-6.796-4.246-11.405-11.028-11.405-3.234 0-6.192 1.875-6.821 3.518-.205-1.271-.869-2.606-2.941-2.606h-1.056a.737.737 0 0 0-.524.218.753.753 0 0 0-.22.53V31.38a.756.756 0 0 0 .233.503.739.739 0 0 0 .511.205h3.254a.585.585 0 0 0 .146 0h.064l.075-.024.079-.044.039-.024a.375.375 0 0 0 .091-.072.764.764 0 0 0 .23-.504V17.589a6.66 6.66 0 0 1 1.919-4.683 6.514 6.514 0 0 1 4.633-1.94c1.737 0 3.404.697 4.633 1.94a6.664 6.664 0 0 1 1.919 4.683v13.792c.011.19.093.37.231.502a.738.738 0 0 0 .508.206h3.254a.593.593 0 0 0 .147 0h.059l.079-.024.075-.044a.256.256 0 0 0 .048-.024l.083-.068h.019a.755.755 0 0 0 .222-.496v-1.575h.039ZM83.405 25.708a11.922 11.922 0 0 0 6.829 2.275c2.175 0 4.42-1.14 4.42-3.118 0-2.647-4.895-3.058-7.971-4.118-3.076-1.06-5.722-3.238-5.722-6.776 0-5.412 4.769-7.647 9.221-7.647a13.806 13.806 0 0 1 7.62 2.287.758.758 0 0 1 .352.48.773.773 0 0 1-.099.59l-1.803 2.6a.727.727 0 0 1-.48.359.716.716 0 0 1-.584-.128 8.878 8.878 0 0 0-5.006-1.599c-2.716 0-4.35 1.267-4.35 2.842 0 1.883 2.128 2.479 4.62 3.118 4.349 1.2 9.074 2.607 9.074 7.996 0 4.765-4.413 7.715-9.288 7.715a15.506 15.506 0 0 1-9.49-3.022.801.801 0 0 1-.166-1.076l1.79-2.586a.715.715 0 0 1 .475-.325.705.705 0 0 1 .558.133ZM29.233 8.959a9.032 9.032 0 0 1-1.492 4.98 8.887 8.887 0 0 1-3.979 3.303 8.776 8.776 0 0 1-5.122.511A8.835 8.835 0 0 1 14.1 15.3a8.993 8.993 0 0 1-2.427-4.59 9.053 9.053 0 0 1 .505-5.18 8.942 8.942 0 0 1 3.267-4.021A8.797 8.797 0 0 1 20.372 0a8.817 8.817 0 0 1 6.265 2.625 9.012 9.012 0 0 1 2.596 6.334ZM8.857 20.16a8.793 8.793 0 0 0-4.922 1.511 8.939 8.939 0 0 0-3.262 4.022 9.05 9.05 0 0 0-.502 5.175 8.989 8.989 0 0 0 2.426 4.586 8.832 8.832 0 0 0 4.537 2.45c1.719.346 3.5.169 5.12-.51a8.883 8.883 0 0 0 3.975-3.3 9.043 9.043 0 0 0 .818-8.406 8.966 8.966 0 0 0-1.921-2.906 8.857 8.857 0 0 0-2.876-1.942 8.778 8.778 0 0 0-3.393-.68ZM31.883 20.16a8.793 8.793 0 0 0-4.923 1.51 8.938 8.938 0 0 0-3.264 4.02 9.05 9.05 0 0 0-.504 5.176 8.989 8.989 0 0 0 2.425 4.587 8.832 8.832 0 0 0 4.537 2.452c1.719.345 3.5.168 5.12-.51a8.883 8.883 0 0 0 3.977-3.3 9.029 9.029 0 0 0 1.493-4.977 9.008 9.008 0 0 0-2.595-6.334 8.813 8.813 0 0 0-6.266-2.624Z"/></g></svg>