<svg xmlns="http://www.w3.org/2000/svg" viewBox="0 0 100 100"><g clip-path="url(#cw)"><path d="M100.01 49.71A49.808 49.808 0 0 0 50.1 0C22.46 0 .04 22.13 0 49.52a50 50 0 1 0 100 .19h.01Z" fill="#A589D6"/><path d="M100.01 49.71a50.003 50.003 0 0 1-50.095 49.905A50 50 0 0 1 .01 49.52C.01 22.13 22.47-.03 50.11 0a49.81 49.81 0 0 1 49.9 49.71Zm-79-5c-1.88.91-3.78 1.1-5.52-.21a5.53 5.53 0 0 1-2.08-5.19c.151-1.79.626-3.539 1.4-5.16 1.91-3.94 4.41-7.31 8.87-8.63a7.06 7.06 0 0 1 4.12 0c.62.2 1.22.56 1.28 1.27.06.71-.46 1.09-1 1.41a5 5 0 0 1-3 .65 1.83 1.83 0 0 0-1.56.46 9.47 9.47 0 0 0 5.43-.61 1.85 1.85 0 0 0 1.19-1.66 2 2 0 0 0-1.11-1.73 4.999 4.999 0 0 0-2.13-.69 10.9 10.9 0 0 0-6.44 1.42 16.76 16.76 0 0 0-8.31 13.6h-1.2c-1.87 0-1.9 0-1.44 1.9l5.46 22.26c.55 2.23.54 2.19 2.82 2.22.81 0 1.09-.28 1.25-1 .52-2.33 1.11-4.64 1.68-7 1-4 1.95-8 3-12.29.19.6.3.89.37 1.19 1.38 5.64 2.74 11.29 4.13 16.93.53 2.19.55 2.15 2.85 2.16.77 0 1-.28 1.18-1 1.873-7.733 3.763-15.46 5.67-23.18a7.001 7.001 0 0 0 2.91-3.06c.95-1.58 1.82-3.2 2.76-4.87.54 1.52.75 1.62 1.76 1 .22-.13.36-.78.81-.24.32.38.84.58.5 1.34a33.856 33.856 0 0 0-1.19 3.61h-1.31c-1-.09-1.23.36-1.23 1.27v23.81c0 1.13.49 1.32 1.45 1.31.96-.01 1.69-.06 1.68-1.37v-22c2.78-.91 4.42-5.15 3-7.71-.14-.24-.4-.44-.09-.72 1-.87 2-1.73 2.87-2.51a1.351 1.351 0 0 0 0 .38c0 .75 0 1.66.83 1.95.83.29 1.27-.32 1.85-.79 1.3-1.08 2.327-2.45 3-4a.997.997 0 0 1 .96-.692c.142.002.282.033.41.092.54.23.15.77.05 1.16a41.034 41.034 0 0 0-1.24 4.85c-.06.53-.24 1.26.41 1.49.65.23 1.12-.3 1.42-.84.51-.95 1-1.92 1.45-2.88.14-.27.18-.71.55-.71.8 0 .93-.62 1.21-1.13a7.81 7.81 0 0 1 1.83-2.8c-.17.91-.48 1.76-.69 2.63-.31 1.3-.92 2.57-.48 4 .37 1.19 1.06 1.44 2 .66A6.763 6.763 0 0 0 67.02 33c.74-1.35 1.47-2.7 2.21-4.07.43.43.08 1.24.86 1.37.78.13 1-.67 1.66-.65v1.44c0 .44 0 1.22.6 1.45a1.48 1.48 0 0 0 1.59-.59c.52-.6 1-1.28 1.42-1.92.21-.29.32-.66.78-.18.75.81 1.49.37 2-.27a16.8 16.8 0 0 0 2.6-5.22c.08-.21.19-.5-.13-.59-.32-.09-.43.14-.54.37-.11.23-.17.44-.27.66a23.467 23.467 0 0 1-2.09 4.16c-.16.22-.34.49-.66.4-.32-.09-.32-.43-.35-.7a3.07 3.07 0 0 1 .33-1.85c.507-.993.912-2.035 1.21-3.11.09-.38.09-.77-.26-1a.87.87 0 0 0-1.1.22c-.23.314-.431.649-.6 1-.14.25-.14.59-.64.49-1.3-.25-2.07.46-2.66 1.54a12.294 12.294 0 0 1-2.35 3.27 7 7 0 0 1 .33-2.66c.06-.29.25-.71-.09-.87a1 1 0 0 0-1.1.26 3.339 3.339 0 0 0-.46.83 62.991 62.991 0 0 1-3.1 5.93c-.45.69-.93 2-1.68 1.66-.75-.34-.27-1.66 0-2.53.36-1.31.77-2.6 1.13-3.9.16-.59.11-1.16-.66-1.27-.77-.11-1.34.67-1.9-.23-.05-.1-.35.07-.45.28-.282.427-.542.867-.78 1.32-.68 1.79-1.43 3.55-2.17 5.31-.13.3-.24.85-.68.66-.44-.19 0-.61.05-.93.39-1.42.82-2.83 1.15-4.26.09-.38.27-1.21-.49-1-1.45.33-1.2-.38-1-1.25.075-.352.095-.712.06-1.07 0-.34.07-.78-.41-.88a1 1 0 0 0-1 .43 3.369 3.369 0 0 0-.58 2.61 3.3 3.3 0 0 1-1.5 3.32c.086-.392.146-.79.18-1.19 0-.84.11-1.83-.94-2.08s-1.59.37-2 1.36a14.201 14.201 0 0 1-3.17 3.74 2.39 2.39 0 0 1 .29-1.59c1.18-3 2.39-6.08 3.57-9.13.17-.44.38-1-.19-1.25-.57-.25-.64.47-.79.84-1 2.44-2 4.89-2.91 7.33-.16.41-.26 1-.74 1-.79 0-.92.64-1.24 1.12a8.18 8.18 0 0 1-2.31 2.89c.046-.722.14-1.44.28-2.15.06-.42.5-1-.18-1.22-.68-.22-.89.23-1.14.74-.86 1.76-1.68 3.53-2.65 5.23a12.102 12.102 0 0 1-3 4.12c.08-.54 0-1-.62-1.15.52-3.18 1-6.37 2.89-9.11a34.25 34.25 0 0 0 1.81-3 7.32 7.32 0 0 0 1.08-3.13c0-.57.15-1.3-.67-1.46a1.24 1.24 0 0 0-1.51.86c-.35.89-.77 1.76-1.07 2.66a62.294 62.294 0 0 1-4.18 10c-.24.43-.43 1.25-1.12.94-.69-.31-.37-1-.31-1.53a3.39 3.39 0 0 1 .3-.78c.5-1.04.922-2.116 1.26-3.22.09-.38.11-.74-.23-1s-.88-.18-1 .09c-.53 1.35-1.72 1.58-2.9 1.86a.82.82 0 0 0-.35.32 11.88 11.88 0 0 0-2.06 6.26c0 .46.05 1 .54 1.24a1.43 1.43 0 0 0 1.52-.44 7.609 7.609 0 0 0 1.45-1.89c.31-.51.52-.83 1.1-.19.58.64 1.14.19 1.6-.2.45-.465.867-.96 1.25-1.48l-.53 3.16c-1-.18-1.42.23-1.64 1.27-.83 3.85-1.79 7.68-2.7 11.51-.56 2.4-1.14 4.79-1.71 7.19h-.21L26.15 42c.67-.95 1.74-1.38 3-2.11-1.55-.19-2.33.67-3.23 1.21-.06-1.2-.6-1.79-1.87-1.55-.355.05-.715.05-1.07 0-.59-.05-.85.21-1 .77-.27 1.55-.61 2.97-.94 4.39h-.03Zm49.76 8v11.8c0 1.58 0 1.58 1.63 1.58h5.86a11 11 0 0 0 9.22-4.91c2.31-3.32 2.73-7.05 2.22-11a11.74 11.74 0 0 0-11.82-10.5c-1.91 0-3.82.05-5.74 0-1 0-1.39.31-1.38 1.37.12 3.88.04 7.79.04 11.7l-.03-.04Zm-14.61-1.37V40.93c0-1.25-.64-1.3-1.58-1.31-.94-.01-1.57.05-1.56 1.31.04 7.9.04 15.797 0 23.69 0 1 .3 1.42 1.37 1.4 3.386-.06 6.776-.06 10.17 0 1.09 0 1.49-.33 1.45-1.44-.06-1.73-.07-1.84-1.42-1.84h-7.06c-1.05 0-1.45-.21-1.42-1.37.13-3.28.08-6.64.08-9.99l-.03-.04Zm18.72 24.44c-.4-.53-.6-.77-.77-1-1.15-1.63-2.32-3.24-3.42-4.89-.44-.66-1.05-.52-1.6-.45s-.38.7-.38 1.08v6.33c0 .51-.22 1.16.73 1.15.95-.01.65-.64.65-1.1v-5c.5.07.59.42.76.66 1.15 1.62 2.31 3.23 3.42 4.89.43.64 1 .57 1.58.49.58-.08.41-.68.41-1.06v-6.57c0-.5 0-.93-.72-.93s-.69.45-.68.94l.02 5.46Zm-52.7-.49c0-2.26 0-2.26-2.29-2.21h-.12c-.41 0-.93-.13-.9.59.03.72.5.44.86.51s1.12-.27 1 .55c-.12.82.58 1.8-.75 2.19a3.32 3.32 0 0 1-3.86-1.36 3.51 3.51 0 0 1 .47-4.39 2.92 2.92 0 0 1 3.91-.29c.34.21.56.38.94.08.68-.54.56-.92-.44-1.4a5.3 5.3 0 0 0-5.68.93 4.81 4.81 0 0 0-.79 5.23 4.64 4.64 0 0 0 5 2.46c2.49-.27 2.67-.46 2.67-2.89h-.02Zm21.59 2.55-1.9-3.09c-.24-.38-.39-.65.22-.88a2.15 2.15 0 0 0 1.34-2.62 2.12 2.12 0 0 0-2.21-1.8c-1-.09-2 0-3-.07-.55 0-.67.26-.67.74v7.16c0 .52.22.69.72.69s.71-.19.69-.7v-2.15c0-.32-.22-.77.28-.91s.78.2 1 .6c.4.7.88 1.34 1.21 2.06a1.64 1.64 0 0 0 2.34.97h-.02Zm3.79-4.25v1c.08 1.1-.52 2.66.23 3.18 1 .69 2.54.33 3.83.16 2.47-.31 3.82-2.16 3.61-4.75a4 4 0 0 0-4.18-3.75h-2.74c-.56 0-.78.18-.77.75.06 1.1.04 2.26.04 3.41h-.02Zm-14.2 4.36c.63.07.92-.05.61-.77-1.05-2.36-2.06-4.73-3.05-7.12a.89.89 0 0 0-.94-.69.92.92 0 0 0-1 .69c-1 2.33-2 4.66-3.05 7-.11.26-.45.59-.12.82.33.23.61.1.92.08.52 0 .62-.49.69-.85a1.46 1.46 0 0 1 1.89-1.26c.354.06.716.06 1.07 0a1.46 1.46 0 0 1 1.91 1.22c.18.44.39 1.02 1.09.88h-.02Zm25.76-4.37v3.59c0 .54.14.81.74.8h4.43c.37 0 .73 0 .74-.52.01-.52-.39-.59-.81-.59h-1.79c-2.15-.06-1.86.48-1.91-2 0-.66.17-.94.87-.9.7.04 1.67 0 2.51 0 .34 0 .64 0 .64-.5s-.28-.51-.63-.51h-2.63c-1.06 0-.73-.73-.74-1.24-.01-.51-.28-1.29.76-1.24h2.63c.38 0 .84.12.86-.52.02-.64-.39-.57-.8-.57h-4.07c-.66 0-.81.26-.8.85.04 1.12.02 2.28.02 3.35h-.02Zm23.76 4.61h.48a2.61 2.61 0 0 0 2.61-2.2c.2-1.34-.35-2.16-1.89-2.77-.48-.19-1-.32-1.45-.54a1.18 1.18 0 0 1-.84-1.3 1.35 1.35 0 0 1 1.27-1.08 1.61 1.61 0 0 1 1.43.44c.57.54.88 0 1.16-.31.45-.53-.15-.69-.44-.85a3.87 3.87 0 0 0-3.24-.22 2.24 2.24 0 0 0-1.65 2.23 2.21 2.21 0 0 0 1.53 2.31c.55.22 1.13.39 1.68.61.55.22 1.06.6 1 1.33a1.42 1.42 0 0 1-1.31 1.2 1.66 1.66 0 0 1-1.63-.56c-.59-.66-.94-.07-1.24.27-.3.34.13.69.41.89a3.57 3.57 0 0 0 2.12.55ZM45.55 29.78c0-.25-.12-.48-.41-.5-.29-.02-.57.1-.6.45a.439.439 0 0 0 .41.49.5.5 0 0 0 .64-.44h-.04Z" fill="#000"/><path d="M38.01 41.9c-1.9 7.72-3.79 15.447-5.67 23.18-.17.7-.41 1-1.18 1-2.3 0-2.32 0-2.85-2.16-1.39-5.64-2.75-11.29-4.13-16.93-.07-.3-.18-.59-.37-1.19-1.05 4.3-2 8.3-3 12.29-.57 2.32-1.16 4.63-1.68 7-.16.75-.44 1-1.25 1-2.28 0-2.27 0-2.82-2.22-1.806-7.42-3.626-14.84-5.46-22.26-.46-1.86-.43-1.9 1.44-1.9h1.2c.112 1.428.51 2.819 1.17 4.09 0 .2 0 .41.22.5-.04.394.001.792.12 1.17.85 3.55 1.67 7.1 2.55 10.64.23 1.29.588 2.553 1.07 3.77l3.42-14.37c2.09-.66 3.63-2.19 5.38-3.39l4.2 17.52h.21c.57-2.4 1.15-4.79 1.71-7.19.91-3.83 1.87-7.66 2.7-11.51.22-1 .63-1.45 1.64-1.27.05.42.09.83.14 1.25.11.77.47 1.12 1.24.98Z" fill="#A589D6"/><path d="M38.01 41.9c-.77.14-1.16-.21-1.24-1-.05-.42-.09-.83-.14-1.25.16-1 .32-1.92.53-3.16-.383.52-.8 1.015-1.25 1.48-.46.39-1.1.76-1.6.2s-.79-.32-1.1.19a7.611 7.611 0 0 1-1.45 1.89 1.43 1.43 0 0 1-1.52.44c-.49-.21-.55-.78-.54-1.24a11.88 11.88 0 0 1 2.06-6.26.82.82 0 0 1 .35-.32c1.18-.28 2.37-.51 2.9-1.86.11-.27.66-.3 1-.09.34.21.32.59.23 1a22.888 22.888 0 0 1-1.26 3.22 3.386 3.386 0 0 0-.3.78c-.06.54-.24 1.29.31 1.53s.88-.51 1.12-.94a62.296 62.296 0 0 0 4.18-10c.3-.9.72-1.77 1.07-2.66a1.24 1.24 0 0 1 1.51-.86c.82.16.7.89.67 1.46a7.32 7.32 0 0 1-1.08 3.13 34.275 34.275 0 0 1-1.81 3c-1.93 2.74-2.37 5.93-2.89 9.11a1.68 1.68 0 0 0-.18 1c0 .23-.06.54.21.6.27.06.47-.21.59-.46a12.102 12.102 0 0 0 3-4.12c1-1.7 1.79-3.47 2.65-5.23.25-.51.52-1 1.14-.74.62.26.24.8.18 1.22a16.39 16.39 0 0 0-.28 2.15 8.18 8.18 0 0 0 2.31-2.89c.32-.48.45-1.08 1.24-1.12.48 0 .58-.59.74-1 1-2.44 1.92-4.89 2.91-7.33.15-.37.24-1 .79-.84.55.16.36.81.19 1.25-1.18 3.05-2.39 6.08-3.57 9.13a2.39 2.39 0 0 0-.29 1.59 14.202 14.202 0 0 0 3.17-3.74c.45-1 1-1.61 2-1.36s.95 1.24.94 2.08c-.034.4-.094.798-.18 1.19a3.3 3.3 0 0 0 1.5-3.32 3.369 3.369 0 0 1 .58-2.61 1 1 0 0 1 1-.43c.48.1.39.54.41.88.035.358.015.719-.06 1.07-.23.87-.48 1.58 1 1.25.76-.17.58.66.49 1-.33 1.43-.76 2.84-1.15 4.26-.09.32-.5.73-.05.93.45.2.55-.36.68-.66.74-1.76 1.49-3.52 2.17-5.31.238-.453.498-.893.78-1.32.1-.21.4-.38.45-.28.56.9 1.27.15 1.9.23.63.08.82.68.66 1.27-.36 1.3-.77 2.59-1.13 3.9-.25.87-.68 2.2 0 2.53.68.33 1.23-1 1.68-1.66a63.028 63.028 0 0 0 3.1-5.93c.113-.297.268-.577.46-.83a1 1 0 0 1 1.1-.26c.34.16.15.58.09.87a7 7 0 0 0-.33 2.66A12.288 12.288 0 0 0 73 26.04c.59-1.08 1.36-1.79 2.66-1.54.5.1.5-.24.64-.49.17-.351.37-.686.6-1a.87.87 0 0 1 1.1-.22c.35.19.35.58.26 1a16.563 16.563 0 0 1-1.21 3.11 3.07 3.07 0 0 0-.33 1.85c0 .27 0 .61.35.7.35.09.5-.18.66-.4a23.474 23.474 0 0 0 2.09-4.16c.1-.22.17-.45.27-.66.1-.21.27-.46.54-.37.27.09.21.38.13.59a16.802 16.802 0 0 1-2.6 5.22c-.53.64-1.27 1.08-2 .27-.46-.48-.57-.11-.78.18-.47.64-.9 1.32-1.42 1.92a1.48 1.48 0 0 1-1.59.59c-.6-.23-.57-.9-.6-1.45-.03-.55 0-.94 0-1.44-.69 0-1 .76-1.66.65-.66-.11-.43-.94-.86-1.37a749.1 749.1 0 0 1-2.21 4.07c-.4.786-.95 1.486-1.62 2.06-1 .78-1.66.53-2-.66-.44-1.4.17-2.67.48-4 .21-.87.52-1.72.69-2.63a7.809 7.809 0 0 0-1.83 2.8c-.28.51-.41 1.14-1.21 1.13-.37 0-.41.44-.55.71-.48 1-.94 1.93-1.45 2.88-.3.54-.76 1.07-1.42.84-.66-.23-.47-1-.41-1.49.315-1.64.729-3.26 1.24-4.85.1-.39.49-.93-.05-1.16a1.002 1.002 0 0 0-1.37.6 10.78 10.78 0 0 1-3 4c-.58.47-1.14 1-1.85.79-.71-.21-.79-1.2-.83-1.95a1.351 1.351 0 0 1 0-.38c-.9.78-1.89 1.64-2.87 2.51-.31.28-.05.48.09.72 1.42 2.56-.22 6.8-3 7.71a1 1 0 0 1-.73-1.08c0-.64.12-1.27.18-1.9.329-1.225.726-2.43 1.19-3.61.34-.76-.18-1-.5-1.34-.45-.54-.59.11-.81.24-1 .6-1.22.5-1.76-1-.94 1.67-1.81 3.29-2.76 4.87a7 7 0 0 1-2.88 3Zm-7.3-1.88a8.66 8.66 0 0 0 2.95-4.47 6.582 6.582 0 0 0 .1-1.54.65.65 0 0 0-.42-.66c-.33-.12-.51.15-.65.38a13.609 13.609 0 0 0-1.98 6.29Zm42.11-8.16a8.11 8.11 0 0 0 3-5.81.83.83 0 0 0-.4-.81c-.39-.2-.59.16-.74.42a12.7 12.7 0 0 0-1.86 6.2ZM46.4 41.8c2.51-2.11 3.28-5.12 1.79-6.59a26.918 26.918 0 0 0-1.79 6.59Zm7.71-9.48a6.19 6.19 0 0 0 .73-2.71 1.31 1.31 0 0 0-.42-1.18.52.52 0 0 0-.82.12c-.31.38-.16.52.28.6.44.08.44.42.13.67-.94.79-.72 1.56.1 2.5Zm-11.4-8.42a13.377 13.377 0 0 0-1.76 4.51c.93-1.37 1.93-2.73 1.76-4.51Zm5.67 7.61-.31-.13c-.4.63-.8 1.26-1.18 1.9-.12.2-.46.48 0 .66a.539.539 0 0 0 .77-.34c.22-.7.48-1.39.72-2.09Zm23.57-2.2h-.06v.08l.06-.08ZM70.8 52.75V41.03c0-1.06.35-1.4 1.38-1.37 1.92.07 3.83 0 5.74 0a11.74 11.74 0 0 1 11.83 10.47c.51 3.92.09 7.65-2.22 11a11 11 0 0 1-9.22 4.91c-2 .05-3.91 0-5.86 0-1.62 0-1.63 0-1.63-1.58l-.02-11.71Zm3.1 0v6.46c0 1.17-.53 2.71.24 3.43.77.72 2.29.22 3.47.21a8.6 8.6 0 0 0 8.38-5.93 12.82 12.82 0 0 0 .6-5.53 8.89 8.89 0 0 0-7.83-8.47c-1.26-.17-2.55 0-3.82-.09-.84-.05-1.09.24-1.08 1.07.07 2.95.02 5.9.02 8.85h.02Z" fill="#A589D6"/><path d="M56.19 51.38c0 3.35.05 6.71 0 10.05 0 1.16.37 1.4 1.42 1.37 2.35-.07 4.71 0 7.06 0 1.35 0 1.36.11 1.42 1.84 0 1.11-.36 1.46-1.45 1.44-3.394-.06-6.784-.06-10.17 0-1.07 0-1.37-.37-1.37-1.4V40.99c0-1.26.61-1.31 1.56-1.31.95 0 1.6.06 1.58 1.31-.09 3.45-.05 6.92-.05 10.39ZM45.56 39.7c-.06.63-.17 1.26-.18 1.9a1 1 0 0 0 .73 1.08v22c0 1.31-.7 1.36-1.68 1.37-.98.01-1.46-.18-1.45-1.31V40.93c0-.91.26-1.36 1.23-1.27.47.06.91.03 1.35.04ZM26.17 42.12c-1.75 1.2-3.29 2.73-5.38 3.39a7.2 7.2 0 0 1-5 .13c-.82-.34-1.41-1-2.18-1.39.08-.24-.05-.38-.22-.5a10.69 10.69 0 0 1-1.17-4.09 16.76 16.76 0 0 1 8.31-13.6 10.9 10.9 0 0 1 6.44-1.42 4.999 4.999 0 0 1 2.13.69 2 2 0 0 1 1.11 1.73 1.85 1.85 0 0 1-1.19 1.66 9.47 9.47 0 0 1-5.43.61 1.83 1.83 0 0 1 1.56-.46 5 5 0 0 0 3-.65c.51-.32 1-.77 1-1.41 0-.64-.66-1.07-1.28-1.27a7.06 7.06 0 0 0-4.12 0c-4.46 1.32-7 4.69-8.87 8.63a14.88 14.88 0 0 0-1.4 5.16 5.53 5.53 0 0 0 2.08 5.19c1.74 1.31 3.64 1.12 5.52.21a14.34 14.34 0 0 0 4.88-3.49c.9-.54 1.68-1.4 3.23-1.21-1.31.71-2.31 1.14-3.02 2.09ZM74.88 75.78v-5.47c0-.49-.08-.95.68-.94.76.01.72.43.72.93v6.57c0 .38.26 1-.41 1.06-.67.06-1.15.15-1.58-.49-1.11-1.66-2.27-3.27-3.42-4.89-.17-.24-.26-.59-.76-.66v5c0 .46.25 1.08-.65 1.1-.9.02-.73-.64-.73-1.15v-6.33c0-.38-.27-1 .38-1.08.65-.08 1.16-.21 1.6.45 1.1 1.65 2.27 3.26 3.42 4.89.17.24.37.48.75 1.01ZM22.2 75.29c0 2.43-.18 2.62-2.63 2.89a4.64 4.64 0 0 1-5-2.46 4.81 4.81 0 0 1 .79-5.23 5.3 5.3 0 0 1 5.68-.93c1 .48 1.12.86.44 1.4-.38.3-.6.13-.94-.08a2.92 2.92 0 0 0-3.91.29 3.51 3.51 0 0 0-.47 4.39 3.32 3.32 0 0 0 3.86 1.36c1.33-.39.66-1.43.75-2.19.09-.76-.62-.47-1-.55-.38-.08-.85.16-.86-.51-.01-.67.49-.57.9-.59h.07c2.32-.05 2.32-.05 2.32 2.21ZM43.79 77.84a1.642 1.642 0 0 1-2.28-1c-.33-.72-.81-1.36-1.21-2.06-.23-.4-.48-.76-1-.6-.52.16-.27.59-.28.91v2.15c0 .51-.17.71-.69.7-.52-.01-.72-.17-.72-.69v-7.16c0-.48.12-.76.67-.74 1 0 2 0 3 .07a2.12 2.12 0 0 1 2.21 1.8 2.15 2.15 0 0 1-1.34 2.62c-.61.23-.46.5-.22.88l1.86 3.12Zm-4.8-6.05c.19.46-.47 1.4.79 1.38 1.26-.02 2.3-.57 2.29-1.4-.01-.83-.89-1.31-2.18-1.38-1.29-.07-.85.73-.9 1.4ZM47.58 73.59v-3.46c0-.57.21-.77.77-.75h2.74a4 4 0 0 1 4.18 3.75c.21 2.59-1.14 4.44-3.61 4.75-1.29.17-2.85.53-3.83-.16-.75-.52-.15-2.08-.23-3.18-.04-.31-.02-.63-.02-.95Zm1.3-.08v2.51c0 .31 0 .63.37.78a3.549 3.549 0 0 0 4.54-2.41c.42-2.19-.81-3.76-3.14-4-1.67-.17-1.77-.08-1.77 1.58v1.54ZM33.38 77.95c-.7.14-.91-.4-1-.89a1.462 1.462 0 0 0-1.91-1.22c-.354.06-.716.06-1.07 0a1.46 1.46 0 0 0-1.89 1.26c-.07.36-.17.82-.69.85-.31 0-.71.08-.92-.08-.21-.16 0-.56.12-.82 1-2.33 2-4.66 3.05-7a.92.92 0 0 1 1-.69.89.89 0 0 1 .94.69c1 2.39 2 4.76 3.05 7.12.24.73-.05.85-.68.78Zm-3.39-6.67c-.3.65-.56 1.13-.75 1.64-.84 2.21-1.32 1.87 1.36 1.92.57 0 .83-.11.54-.75-.39-.87-.72-1.76-1.15-2.81ZM59.14 73.58v-3.35c0-.59.14-.87.8-.85h4.07c.41 0 .82-.05.8.57-.02.62-.48.52-.86.52h-2.63c-1-.05-.77.7-.76 1.24.01.54-.32 1.28.74 1.24h2.63c.35 0 .63.06.63.51s-.3.5-.64.5h-2.51c-.83 0-.89.24-.87.9.05 2.48-.24 1.94 1.91 2h1.79c.42 0 .83 0 .81.59-.02.59-.37.52-.74.52h-4.43c-.6 0-.75-.26-.74-.8.02-1.2 0-2.39 0-3.59ZM82.88 78.19a3.57 3.57 0 0 1-2.16-.55c-.28-.2-.84-.41-.41-.89.43-.48.65-.93 1.24-.27a1.66 1.66 0 0 0 1.63.56 1.42 1.42 0 0 0 1.31-1.2c.1-.73-.37-1.09-1-1.33s-1.13-.39-1.68-.61a2.21 2.21 0 0 1-1.53-2.31 2.24 2.24 0 0 1 1.65-2.23 3.87 3.87 0 0 1 3.24.22c.29.16.89.32.44.85-.28.31-.59.85-1.16.31a1.61 1.61 0 0 0-1.43-.44 1.35 1.35 0 0 0-1.27 1.08 1.18 1.18 0 0 0 .84 1.3c.46.22 1 .35 1.45.54 1.54.61 2.09 1.43 1.89 2.77a2.61 2.61 0 0 1-2.61 2.2h-.44Z" fill="#A589D6"/><path d="M25.88 41.22A14.342 14.342 0 0 1 21 44.71c.33-1.42.67-2.84 1-4.27.12-.56.38-.82 1-.77.355.05.715.05 1.07 0 1.25-.24 1.81.35 1.81 1.55ZM38.37 40.81c-.12.25-.27.54-.59.46-.32-.08-.22-.37-.21-.6a1.681 1.681 0 0 1 .18-1c.62.15.7.6.62 1.14ZM45.59 29.78a.499.499 0 0 1-.6.44.437.437 0 0 1-.395-.313.44.44 0 0 1-.016-.177c0-.35.3-.46.6-.45.3.01.37.23.41.5Z" fill="#A589D6"/><path d="M13.62 44.25c.77.4 1.36 1.05 2.18 1.39a7.2 7.2 0 0 0 5-.13c-1.13 4.7-2.26 9.41-3.43 14.32a19.499 19.499 0 0 1-1.07-3.77c-.88-3.54-1.7-7.09-2.55-10.64a2.91 2.91 0 0 1-.13-1.17Z" fill="#000"/><path d="M13.41 43.76c.17.12.3.26.22.5-.25-.09-.23-.3-.22-.5Z" fill="#F9BC5F"/><path d="M30.71 40.02c.141-2.23.828-4.39 2-6.29.14-.23.321-.5.651-.38a.65.65 0 0 1 .42.66 6.575 6.575 0 0 1-.1 1.54 8.659 8.659 0 0 1-2.97 4.47ZM72.82 31.86a12.7 12.7 0 0 1 1.9-6.2c.15-.26.35-.62.74-.42a.83.83 0 0 1 .4.81 8.109 8.109 0 0 1-3.04 5.81ZM46.4 41.8a26.918 26.918 0 0 1 1.79-6.59c1.49 1.47.69 4.48-1.79 6.59ZM54.11 32.32c-.82-.94-1-1.71-.1-2.5.31-.25.36-.58-.13-.67-.49-.09-.59-.22-.28-.6a.52.52 0 0 1 .82-.12 1.31 1.31 0 0 1 .42 1.18 6.19 6.19 0 0 1-.73 2.71ZM42.71 23.9c.12 1.78-.83 3.14-1.76 4.51a13.382 13.382 0 0 1 1.76-4.51ZM48.38 31.51c-.24.7-.5 1.39-.74 2.09a.538.538 0 0 1-.77.34c-.44-.18-.1-.46 0-.66.38-.64.78-1.27 1.18-1.9l.33.13Z" fill="#000"/><path d="m71.95 29.32-.07.03.01-.08.06.05Z" fill="#F9BC5F"/><path d="M73.88 52.75V43.9c0-.83.24-1.12 1.08-1.07 1.27.08 2.56-.08 3.82.09a8.89 8.89 0 0 1 7.83 8.47 12.82 12.82 0 0 1-.6 5.53 8.6 8.6 0 0 1-8.38 5.93c-1.18 0-2.7.5-3.47-.21s-.22-2.26-.24-3.43c-.04-2.16-.04-4.31-.04-6.46ZM38.99 71.79c.05-.67-.29-1.47.9-1.4 1.19.07 2.17.55 2.18 1.38.01.83-.95 1.38-2.29 1.4-1.34.02-.6-.92-.79-1.38ZM48.88 73.51v-1.55c0-1.66.1-1.75 1.77-1.58 2.33.25 3.56 1.82 3.14 4a3.55 3.55 0 0 1-4.54 2.41c-.41-.15-.37-.47-.37-.78v-2.5ZM29.99 71.28c.43 1.05.76 1.94 1.15 2.81.29.64 0 .76-.54.75-2.68-.05-2.2.29-1.36-1.92.19-.51.45-.99.75-1.64Z" fill="#000"/></g><defs><clipPath id="cw"><path fill="#fff" d="M0 0h100v99.29H0z"/></clipPath></defs></svg>