<svg xmlns="http://www.w3.org/2000/svg" viewBox="0 0 159 30"><g fill="currentColor"><path d="M143.11 29.578c-.85-.182-1.711-.323-2.547-.552-6.63-1.814-10.995-8.44-10.113-15.324.814-6.362 4.802-10.96 10.724-12.352.595-.14 1.197-.245 1.795-.365h2.974c.109.039.215.102.327.115 2.707.333 5.136 1.338 7.285 3.036.065.052.145.083.327.183V1.842h5.087v26.876h-5.115v-2.327c-.092-.019-.121-.034-.133-.026-.155.108-.31.215-.459.33a13.843 13.843 0 0 1-5.395 2.53c-.545.124-1.093.234-1.64.351-1.04.002-2.08.002-3.117.002Zm1.731-4.832c5.244.14 9.241-3.872 9.154-9.662-.087-5.893-4.526-9.454-9.741-9.292-5.127.158-8.85 4.194-8.778 9.724.072 5.365 4.059 9.295 9.365 9.23ZM47.546 29.578c-.85-.182-1.71-.323-2.544-.554-6.608-1.82-10.949-8.376-10.112-15.25.776-6.383 4.771-11.014 10.722-12.421.593-.14 1.195-.246 1.793-.368h2.974c.133.042.263.105.399.122 2.656.339 5.048 1.324 7.163 2.985.084.066.182.113.383.234V1.823h5.033v26.911h-5.083v-2.489c-1.843 1.513-3.79 2.49-5.967 2.981-.547.124-1.096.234-1.645.35-1.04.002-2.079.002-3.116.002Zm1.699-4.832c5.313.154 9.263-3.903 9.198-9.617-.067-5.905-4.507-9.486-9.698-9.337-5.103.147-8.869 4.154-8.826 9.61.042 5.425 4.007 9.398 9.326 9.344ZM109.273 29.578c-.804-.168-1.618-.298-2.411-.508-6.76-1.796-11.167-8.465-10.243-15.48.829-6.287 4.848-10.876 10.732-12.249.545-.127 1.093-.237 1.639-.356h3.115c.871.192 1.758.328 2.611.585 4.681 1.421 7.882 4.423 9.453 9.137.072.217.117.443.195.74-1.705 0-3.329.012-4.951-.018-.16-.003-.384-.24-.462-.42-2.471-5.762-10.41-6.893-14.497-2.755-2.796 2.83-3.44 6.301-2.363 10.034 1.055 3.654 3.608 5.844 7.337 6.357 3.611.498 6.647-.701 8.847-3.752.069-.096.163-.19.191-.3.331-1.309 1.284-1.377 2.385-1.31 1.146.069 2.297.016 3.548.016-.172.517-.287.952-.458 1.36-2.082 4.962-5.758 7.88-11.018 8.776-.18.03-.354.096-.531.146-1.042-.003-2.081-.003-3.119-.003ZM16.54.985c.871.192 1.759.325 2.611.582 4.68 1.417 7.883 4.415 9.459 9.123.052.157.096.318.134.48.016.067.009.14.016.279-1.634 0-3.256.011-4.879-.019-.164-.003-.398-.227-.473-.403C20.938 5.244 13 4.122 8.922 8.232c-2.864 2.888-3.494 6.425-2.331 10.223 1.114 3.639 3.718 5.77 7.45 6.21 3.741.442 6.87-.852 8.883-4.178.58-.957 1.127-1.301 2.185-1.213 1.192.1 2.4.023 3.703.023-.083.3-.133.543-.218.774-1.952 5.27-5.685 8.376-11.166 9.355-.204.036-.402.102-.603.153h-3.114c-.18-.046-.357-.111-.54-.134-5.697-.744-10.147-4.64-11.674-10.248-.21-.77-.354-1.56-.528-2.341V13.71c.05-.203.12-.403.148-.607C1.897 7.482 5.82 2.963 11.23 1.49c.768-.212 1.557-.339 2.338-.505h2.973ZM81.948.985c.592.145 1.188.27 1.773.438 3.49.996 5.768 3.896 5.76 7.365h-4.913c-.026-.046-.064-.081-.07-.123-.443-3.11-3.565-4.532-6.22-2.832-1.906 1.22-2.083 3.85-.246 5.164.884.632 1.956 1.026 2.986 1.407 1.457.539 2.975.909 4.433 1.447 6.462 2.383 5.834 10.188 2.126 13.3a10.261 10.261 0 0 1-4.88 2.272c-.205.037-.406.102-.609.155h-2.69c-.587-.148-1.184-.268-1.762-.445-3.664-1.124-6.011-3.44-6.524-7.4a6.108 6.108 0 0 1-.04-.426c-.005-.07.009-.141.019-.263h4.995c.072.362.124.712.213 1.052.52 1.996 2.363 3.291 4.613 3.253 2.1-.036 3.777-1.278 4.192-3.157.327-1.48-.034-2.792-1.31-3.644-.914-.609-1.94-1.068-2.954-1.498-.974-.413-2.004-.692-3.002-1.054-.686-.248-1.378-.494-2.034-.812-4.942-2.399-5.655-8.532-1.41-12.083 1.266-1.06 2.735-1.658 4.338-1.958.178-.033.35-.103.525-.158h2.691Z"/></g></svg>