<svg xmlns="http://www.w3.org/2000/svg" aria-label="Constant Contact logo" viewBox="0 0 166 46"><path fill-rule="evenodd" clip-rule="evenodd" d="M70.19 40.79c-.44-.615-.968-.79-1.76-.351-1.143.614-2.551 1.052-3.96 1.052-3.959 0-6.686-2.72-6.686-6.579 0-3.86 2.727-6.579 6.687-6.579 1.32 0 2.816.351 3.96 1.053.791.439 1.32.35 1.76-.35l.44-.615c.44-.702.351-1.316-.265-1.754C68.606 25.527 66.76 25 64.56 25c-3.08 0-5.807 1.053-7.743 2.983C54.968 29.825 54 32.28 54 35c0 2.72.968 5.175 2.816 7.017C58.75 43.947 61.39 45 64.559 45c2.288 0 4.136-.526 5.983-1.754.528-.439.616-.965.176-1.667l-.528-.79z"/><path fill-rule="evenodd" clip-rule="evenodd" d="M78.457 31C74.295 31 71 34.102 71 37.958 71 41.898 74.295 45 78.457 45 82.705 45 86 41.898 86 37.958 85.913 34.102 82.532 31 78.457 31zm0 10.982c-2.255 0-3.989-1.76-3.989-3.94 0-2.264 1.734-4.024 3.989-4.024 2.254 0 3.988 1.76 3.988 4.024-.087 2.18-1.82 3.94-3.988 3.94zM95.437 31c-2.132 0-3.801.854-4.543 2.305v-.768c0-.769-.464-1.195-1.298-1.195h-1.298c-.834 0-1.298.426-1.298 1.195v11.268c0 .768.464 1.195 1.298 1.195h1.298c.834 0 1.298-.427 1.298-1.195v-5.463c0-1.452.742-4.269 3.709-4.269 1.576 0 2.503 1.195 2.503 3.244v6.402c0 .769.464 1.196 1.298 1.196h1.298c.834 0 1.298-.427 1.298-1.196v-6.573C101 33.305 98.868 31 95.437 31zM125.934 31.335h-1.057c-.68 0-1.058.42-1.058 1.174v.587c-.906-1.341-2.341-2.096-3.927-2.096-3.399 0-5.892 2.934-5.892 6.958S116.493 45 119.892 45c1.661 0 3.021-.755 3.927-2.096v.587c0 .755.378 1.174 1.058 1.174h1.057c.68 0 1.058-.42 1.058-1.174V32.593c.075-.755-.378-1.258-1.058-1.258zm-5.438 10.73c-1.964 0-3.324-1.676-3.324-4.023 0-2.347 1.36-4.024 3.324-4.024 1.964 0 3.399 1.677 3.399 4.024 0 2.431-1.435 4.024-3.399 4.024zM138.204 34.102c.441 0 1.411.084 2.381.503.794.335 1.323.251 1.764-.335l.353-.42c.265-.335.353-.67.265-.922-.088-.251-.265-.503-.618-.754-1.676-.922-3.263-1.174-4.322-1.174-4.763 0-8.027 2.934-8.027 7.126 0 4.024 3.352 6.874 8.027 6.874.97 0 2.47-.168 3.97-.922.441-.252.793-.587.882-.922.088-.336 0-.587-.265-.922l-.353-.42c-.441-.587-.97-.67-1.764-.251-1.058.503-2.205.503-2.382.503-2.646 0-4.498-1.677-4.498-4.024 0-2.264 1.94-3.94 4.587-3.94zM154.642 42.317l-.894-1.125c-.179-.173-.268-.26-.447-.26s-.358.087-.537.26l-.089.087c-.09.173-.537.52-1.073.606-.179 0-.358.086-.537 0-.805-.087-1.252-.606-1.252-1.645v-6.663h3.398c.448 0 .716-.26.716-.692V31.5c0-.433-.268-.692-.716-.692h-3.398v-2.596c0-.78-.447-1.212-1.252-1.212h-1.163c-.804 0-1.252.433-1.252 1.212v2.51h-1.431c-.447 0-.715.259-.715.691v1.385c0 .433.268.692.715.692h1.431v6.664c0 4.24 3.041 4.846 4.83 4.846.626 0 1.162-.087 1.699-.173.268-.087.536-.173.805-.346.447-.173.715-.433 1.073-.78.179-.172.358-.345.447-.518 0-.26-.089-.606-.358-.866zM110.932 41.192c-.144-.173-.216-.26-.361-.26-.144 0-.288.087-.432.26l-.072.087c-.072.173-.433.52-.866.606-.144 0-.288.086-.432 0-.649-.087-1.01-.606-1.01-1.645v-6.663h2.74c.361 0 .577-.26.577-.692V31.5c0-.433-.216-.692-.577-.692h-2.74v-2.596c0-.78-.36-1.212-1.009-1.212h-1.01c-.649 0-1.009.433-1.009 1.212v2.51h-1.154c-.361 0-.577.259-.577.691v1.385c0 .433.216.692.577.692h1.154v6.664c0 4.24 2.451 4.846 3.893 4.846.505 0 .938-.087 1.371-.173.216-.087.432-.173.649-.346.36-.173.576-.433.865-.78.144-.172.288-.345.36-.518.217-.26.145-.606-.072-.952l-.865-1.039zM70.238 17c-.414-.583-.911-.75-1.656-.333-1.077.583-2.402 1-3.727 1-3.727 0-6.294-2.584-6.294-6.25 0-3.667 2.567-6.25 6.294-6.25 1.242 0 2.65.333 3.727 1 .745.416 1.242.333 1.656-.334l.414-.583c.414-.667.331-1.25-.248-1.667C68.747 2.5 67.008 2 64.938 2c-2.899 0-5.466 1-7.288 2.833C55.911 6.583 55 8.917 55 11.5s.911 4.917 2.65 6.667C59.472 20 61.956 21 64.938 21c2.153 0 3.892-.5 5.631-1.667.497-.416.58-.916.166-1.583l-.497-.75zM79.462 8A6.43 6.43 0 0073 14.461C73 18.12 75.856 21 79.462 21 83.144 21 86 18.12 86 14.461 85.925 10.881 82.994 8 79.462 8zm0 10.198c-1.953 0-3.456-1.635-3.456-3.66 0-2.1 1.503-3.736 3.456-3.736 1.954 0 3.457 1.635 3.457 3.737-.075 2.024-1.578 3.659-3.457 3.659zM96.232 8c-1.828 0-3.258.793-3.894 2.14v-.713c0-.714-.398-1.11-1.113-1.11h-1.112c-.716 0-1.113.396-1.113 1.11V19.89c0 .714.397 1.11 1.113 1.11h1.112c.715 0 1.113-.396 1.113-1.11v-5.073c0-1.348.636-3.963 3.179-3.963 1.35 0 2.145 1.11 2.145 3.012v5.945c0 .713.398 1.11 1.113 1.11h1.112c.716 0 1.113-.397 1.113-1.11v-6.104C101 10.14 99.172 8 96.232 8zM109.233 13.482l-1.883-.548c-.986-.235-1.345-.627-1.345-1.175 0-.705.717-1.175 1.614-1.175.628 0 1.076.157 1.435.549.448.47.897.626 1.614.548l.628-.157c.448-.078.807-.313.897-.626.09-.235.09-.549-.179-.862C111.117 8.705 109.592 8 107.529 8c-2.959 0-5.111 1.645-5.111 3.916 0 1.644 1.255 2.897 3.856 3.524l1.794.548c1.076.313 1.434.705 1.434 1.175 0 .704-.807 1.253-1.973 1.253-.896 0-1.793-.314-2.242-.862-.448-.47-.807-.783-1.614-.626l-.717.156c-.449.079-.807.314-.897.549-.09.235-.09.548.09.861.896 1.566 2.869 2.506 5.38 2.506 3.767 0 5.471-1.958 5.471-3.916 0-1.174-.717-2.74-3.767-3.602zM137.852 8.311h-1.138c-.733 0-1.139.39-1.139 1.09v.545C134.599 8.701 133.053 8 131.345 8 127.684 8 125 10.725 125 14.461c0 3.737 2.684 6.539 6.345 6.539 1.789 0 3.254-.7 4.23-1.946v.545c0 .7.406 1.09 1.139 1.09h1.138c.732 0 1.139-.39 1.139-1.09V9.4c.082-.7-.407-1.09-1.139-1.09zm-5.856 9.964c-2.115 0-3.58-1.556-3.58-3.736s1.465-3.737 3.58-3.737 3.66 1.557 3.66 3.737-1.545 3.736-3.66 3.736zM149.834 8c-1.98 0-3.529.793-4.218 2.14v-.713c0-.714-.431-1.11-1.205-1.11h-1.206c-.775 0-1.205.396-1.205 1.11V19.89c0 .714.43 1.11 1.205 1.11h1.206c.774 0 1.205-.396 1.205-1.11v-5.073c0-1.348.689-3.963 3.444-3.963 1.463 0 2.324 1.11 2.324 3.012v5.945c0 .713.431 1.11 1.205 1.11h1.206c.775 0 1.205-.397 1.205-1.11v-6.104C155 10.14 153.02 8 149.834 8zM164.86 17.322c-.144-.163-.216-.245-.361-.245-.144 0-.288.082-.432.245l-.072.082c-.073.163-.433.49-.866.572-.144 0-.288.082-.432 0-.649-.082-1.01-.572-1.01-1.553V10.13h2.74c.361 0 .577-.245.577-.654V8.25c0-.409-.216-.654-.577-.654h-2.74V5.144c0-.735-.36-1.144-1.009-1.144h-.938c-.649 0-1.009.409-1.009 1.144v2.37h-1.154c-.361 0-.577.246-.577.654v1.308c0 .409.216.654.577.654h1.154v6.293c0 4.005 2.451 4.577 3.893 4.577.505 0 .938-.082 1.371-.163.216-.082.432-.164.649-.327.36-.164.576-.409.865-.736.144-.163.288-.327.36-.49.217-.245.145-.572-.072-.9l-.937-1.062zM122.86 17.322c-.144-.163-.216-.245-.361-.245-.144 0-.288.082-.432.245l-.072.082c-.073.163-.433.49-.866.572-.144 0-.288.082-.432 0-.649-.082-1.01-.572-1.01-1.553V10.13h2.74c.361 0 .577-.245.577-.654V8.25c0-.409-.216-.654-.577-.654h-2.74V5.144c0-.735-.36-1.144-1.009-1.144h-.938c-.649 0-1.009.409-1.009 1.144v2.37h-1.154c-.361 0-.577.246-.577.654v1.308c0 .409.216.654.577.654h1.154V16.424c0 4.004 2.451 4.576 3.893 4.576.505 0 .938-.082 1.371-.163.216-.082.432-.164.649-.327.36-.164.576-.409.865-.736.144-.163.288-.327.36-.49.217-.245.145-.572-.072-.9l-.937-1.062zM29.361 18.864c.405 1.213 1.537 1.941 2.832 1.941.323 0 .647-.08.97-.161 1.537-.566 2.346-2.265 1.78-3.802-.97-2.67-2.993-4.772-5.824-6.067-1.456-.647-3.236 0-3.964 1.456-.647 1.456 0 3.236 1.456 3.964 1.456.647 2.346 1.537 2.75 2.67zM28.392.259c-1.618-.324-3.154.728-3.478 2.345-.324 1.618.728 3.155 2.346 3.479 6.714 1.294 11.243 5.824 12.376 12.376.242 1.456 1.537 2.427 2.912 2.427.162 0 .323 0 .485-.081 1.618-.324 2.67-1.86 2.427-3.398C43.923 8.51 37.533 2.038 28.392.26zM20.87 29.864c-2.669 0-4.934-2.184-4.934-4.934 0-2.67 2.184-4.934 4.934-4.934a2.986 2.986 0 002.993-2.993c0-1.699-1.294-2.993-2.993-2.993-5.985 0-10.839 4.853-10.839 10.839 0 5.986 4.854 10.84 10.84 10.84 5.985 0 10.839-4.854 10.839-10.84a2.986 2.986 0 00-2.993-2.993 2.986 2.986 0 00-2.993 2.993 4.855 4.855 0 01-4.854 5.015z"/><path fill-rule="evenodd" clip-rule="evenodd" d="M38.746 22.019a2.986 2.986 0 00-2.993 2.993c0 8.25-6.714 14.964-14.965 14.964-8.25 0-14.964-6.713-14.964-14.964 0-8.25 6.714-14.965 14.964-14.965a2.986 2.986 0 002.994-2.993 2.986 2.986 0 00-2.994-2.992C9.383 4.062 0 13.445 0 24.93s9.383 20.87 20.87 20.87c11.486 0 20.869-9.384 20.869-20.87 0-1.618-1.294-2.912-2.993-2.912z"/></svg>