<svg xmlns="http://www.w3.org/2000/svg" aria-label="Figma logo" viewBox="0 0 131 46" class="sc-1qaliyq-9 bvRvlY"><g><path d="M.934 0v35.668l4.665.017V18.701h11.216v-4.494H5.581v-9.73h14.626V0H.934Zm27.635 7.254c.81 0 1.585-.317 2.157-.881.573-.564.894-1.33.894-2.127 0-.798-.322-1.563-.894-2.127a3.073 3.073 0 0 0-2.157-.88c-.809 0-1.585.316-2.157.88a2.986 2.986 0 0 0-.893 2.127c0 .798.32 1.563.893 2.127.572.564 1.348.88 2.157.88Zm-2.35 4.476v23.955h4.665V11.73h-4.666Z"/><path fill-rule="evenodd" clip-rule="evenodd" d="M48.13 11.04c-6.174 0-10.48 5.148-10.48 11.27s4.306 11.27 10.48 11.27c2.835 0 5.168-1.062 6.872-2.83v3.184a7.11 7.11 0 0 1-.528 2.779 7.192 7.192 0 0 1-1.572 2.364 7.31 7.31 0 0 1-2.375 1.584c-.89.369-1.845.56-2.81.562-1.49 0-2.961-.566-4.128-1.38l-2.333 3.98a12.072 12.072 0 0 0 12.196.446 11.86 11.86 0 0 0 4.552-4.333 11.64 11.64 0 0 0 1.664-6.02V11.748h-4.666v2.14c-1.704-1.769-4.037-2.83-6.873-2.83v-.018Zm-5.833 11.27c0-3.804 2.943-6.794 6.353-6.794 3.41 0 6.334 3.008 6.334 6.794 0 3.804-2.943 6.776-6.334 6.776-3.41 0-6.353-2.972-6.353-6.776Z"/><path d="M76.429 15.516a5.113 5.113 0 0 0-3.54 1.504 4.97 4.97 0 0 0-1.449 3.52v15.145h-4.666V11.73h4.666v2.194a7.335 7.335 0 0 1 2.647-2.15 7.444 7.444 0 0 1 3.347-.734c3.266 0 5.778 1.592 7.214 4.034a8.887 8.887 0 0 1 3.19-2.937 9.036 9.036 0 0 1 4.221-1.097c5.294 0 8.614 4.21 8.614 9.43v15.215h-4.63V20.523a4.97 4.97 0 0 0-1.45-3.52 5.114 5.114 0 0 0-3.539-1.505 5.114 5.114 0 0 0-3.54 1.504 4.97 4.97 0 0 0-1.448 3.521v15.145H81.4V20.523a4.97 4.97 0 0 0-1.443-3.515 5.114 5.114 0 0 0-3.528-1.51v.018Z"/><path fill-rule="evenodd" clip-rule="evenodd" d="M125.491 14.455a11.252 11.252 0 0 0-3.743-2.541 11.391 11.391 0 0 0-4.458-.874c-6.927 0-11.844 5.768-11.844 12.668 0 6.9 4.917 12.667 11.844 12.667 1.53.008 3.046-.29 4.456-.878a11.303 11.303 0 0 0 3.745-2.536v2.724h4.648V11.73h-4.666v2.725h.018Zm-15.397 9.253c0-4.565 3.553-8.192 7.699-8.192 4.127 0 7.698 3.627 7.698 8.192 0 4.564-3.553 8.174-7.698 8.174-4.128 0-7.699-3.61-7.699-8.174Z"/></g></svg>