<svg aria-label="GoDaddy logo" fill="currentColor" viewBox="0 0 118 23" xmlns="http://www.w3.org/2000/svg" class="sc-1s5iqou-0 KgtDZ"><path fill="currentColor" d="M23.63 1.034c-2.81-1.615-6.51-1.23-9.81.677-3.289-1.907-6.99-2.292-9.798-.677-4.44 2.552-4.98 9.123-1.204 14.679 2.782 4.095 7.134 6.495 11.008 6.451 3.874.044 8.226-2.356 11.01-6.451 3.77-5.556 3.235-12.127-1.205-14.679ZM4.86 14.54a12.785 12.785 0 0 1-1.742-3.668 9.682 9.682 0 0 1-.379-3.458C2.907 5.36 3.816 3.762 5.297 2.91c1.48-.85 3.438-.902 5.523-.141.313.115.622.248.93.394a16.075 16.075 0 0 0-2.994 3.31C6.463 9.846 5.764 13.6 6.564 16.592A13.808 13.808 0 0 1 4.86 14.54Zm19.678-3.67a12.814 12.814 0 0 1-1.742 3.669 13.93 13.93 0 0 1-1.705 2.056c.715-2.682.229-5.969-1.525-9.05a.437.437 0 0 0-.279-.21.476.476 0 0 0-.355.051l-5.467 3.141a.415.415 0 0 0-.199.257.383.383 0 0 0 .057.31l.802 1.18a.446.446 0 0 0 .279.183.478.478 0 0 0 .337-.053l3.544-2.036c.114.316.229.633.315.949a9.68 9.68 0 0 1 .38 3.454c-.17 2.052-1.078 3.65-2.559 4.502a5.327 5.327 0 0 1-2.534.675h-.114a5.32 5.32 0 0 1-2.535-.675c-1.482-.852-2.39-2.45-2.559-4.502a9.706 9.706 0 0 1 .378-3.459c.768-2.603 2.356-4.94 4.564-6.716a11.632 11.632 0 0 1 3.21-1.828c2.079-.761 4.04-.71 5.522.141 1.482.852 2.39 2.45 2.558 4.503a9.704 9.704 0 0 1-.374 3.459Zm28.22-2.452c-2.874 0-5.197 2.064-5.197 4.69 0 2.607 2.323 4.637 5.198 4.637 2.894 0 5.217-2.027 5.217-4.638 0-2.624-2.32-4.688-5.217-4.688Zm0 6.875c-1.324 0-2.333-.985-2.333-2.204 0-1.218 1.009-2.218 2.334-2.218 1.344 0 2.353 1.003 2.353 2.221 0 1.219-1.009 2.205-2.353 2.205v-.004Zm11.7-10.476h-5.29a.445.445 0 0 0-.308.114.374.374 0 0 0-.124.284v11.858a.376.376 0 0 0 .116.298c.082.08.197.125.316.124h5.29c4.232 0 7.173-2.589 7.173-6.354 0-3.79-2.94-6.324-7.173-6.324Zm.125 10.174h-2.894V7.315h2.894c2.342 0 3.957 1.611 3.957 3.82 0 2.173-1.615 3.856-3.957 3.856ZM82.16 8.673h-1.99c-.228.017-.405.189-.412.399v.542c-.453-.688-1.476-1.195-2.751-1.195-2.48 0-4.803 1.792-4.803 4.653 0 2.846 2.302 4.67 4.784 4.67 1.279 0 2.323-.505 2.776-1.194v.561c0 .21.185.379.412.38h1.989a.423.423 0 0 0 .295-.108.357.357 0 0 0 .119-.272V9.072a.37.37 0 0 0-.119-.281.44.44 0 0 0-.301-.118Zm-4.626 6.64c-1.317 0-2.306-.93-2.306-2.222 0-1.29.99-2.22 2.306-2.22 1.317 0 2.306.928 2.306 2.22 0 1.29-.988 2.221-2.306 2.221v.001ZM93.321 4.817h-1.988a.44.44 0 0 0-.303.107.372.372 0 0 0-.13.273V9.58c-.458-.653-1.496-1.16-2.795-1.16-2.462 0-4.745 1.792-4.745 4.653 0 2.846 2.303 4.67 4.784 4.67 1.28 0 2.244-.505 2.776-1.194v.561c0 .21.185.38.413.38h1.988a.423.423 0 0 0 .296-.108.356.356 0 0 0 .118-.272V5.2a.356.356 0 0 0-.117-.273.423.423 0 0 0-.297-.11Zm-4.626 10.518c-1.31 0-2.292-.94-2.292-2.245 0-1.304.985-2.245 2.292-2.245 1.308 0 2.293.94 2.293 2.245 0 1.305-.98 2.245-2.293 2.245Zm15.787-10.518h-1.986a.442.442 0 0 0-.303.107.375.375 0 0 0-.13.273V9.58c-.453-.653-1.497-1.16-2.795-1.16-2.462 0-4.745 1.792-4.745 4.653 0 2.846 2.303 4.67 4.784 4.67 1.28 0 2.244-.505 2.776-1.194v.561c.001.21.185.38.413.38h1.986a.422.422 0 0 0 .295-.108.355.355 0 0 0 .117-.272V5.2a.354.354 0 0 0-.116-.273.422.422 0 0 0-.296-.11Zm-4.626 10.518c-1.313 0-2.293-.94-2.293-2.245 0-1.304.985-2.245 2.293-2.245 1.307 0 2.292.94 2.292 2.245 0 1.305-.978 2.245-2.289 2.245h-.003ZM115.37 9.29l-2.967 9.358c-.573 1.665-1.851 2.661-3.84 2.661-.904 0-1.727-.17-2.373-.509-.375-.197-.687-.377-.687-.666 0-.18.063-.272.177-.44l.59-.811c.166-.227.288-.3.467-.3a.718.718 0 0 1 .392.125c.37.22.714.41 1.238.41.612 0 1.08-.18 1.332-.85l.254-.777h-1.201a.521.521 0 0 1-.532-.38l-2.655-7.821c-.099-.308-.008-.616.483-.616h2.092c.256 0 .434.08.547.417l1.961 6.297 1.834-6.297c.058-.217.216-.417.532-.417h1.984c.39 0 .508.252.372.616Zm-68.56 2.783v5a.39.39 0 0 1-.13.293.464.464 0 0 1-.319.12H44.72a.462.462 0 0 1-.32-.12.39.39 0 0 1-.13-.294V15.76c-1.041 1.21-2.853 1.972-4.903 1.972-3.848 0-6.856-2.662-6.856-6.452 0-3.939 3.247-6.654 7.35-6.654 3.027 0 5.448 1.197 6.523 3.606.03.063.047.132.05.201 0 .114-.082.2-.344.284l-1.917.678a.531.531 0 0 1-.362.005.526.526 0 0 1-.23-.24c-.687-1.203-1.911-2.02-3.795-2.02-2.444 0-4.194 1.755-4.194 4.03 0 2.206 1.49 4.02 4.264 4.02 1.459 0 2.622-.633 3.164-1.327h-1.73a.462.462 0 0 1-.32-.12.39.39 0 0 1-.13-.293v-1.36a.391.391 0 0 1 .13-.294c.084-.078.2-.12.32-.119h5.071a.448.448 0 0 1 .318.109.379.379 0 0 1 .131.286Zm68.614-5.25V6.7c0-.008.003-.016.009-.023a.038.038 0 0 1 .024-.008h.838c.009 0 .018.002.024.008a.034.034 0 0 1 .009.023v.122a.031.031 0 0 1-.009.022.033.033 0 0 1-.024.008h-.306v.76a.035.035 0 0 1-.034.032h-.159a.033.033 0 0 1-.023-.01.031.031 0 0 1-.01-.022v-.76h-.306a.032.032 0 0 1-.024-.008.025.025 0 0 1-.009-.023Zm1.465-.126.229.488.229-.488a.049.049 0 0 1 .018-.021.072.072 0 0 1 .031-.007h.266c.009 0 .018.003.024.008.007.006.01.014.01.022v.915a.03.03 0 0 1-.009.022.033.033 0 0 1-.024.008h-.149a.037.037 0 0 1-.024-.008.027.027 0 0 1-.009-.022v-.69l-.246.501a.055.055 0 0 1-.019.024.062.062 0 0 1-.03.007h-.122a.062.062 0 0 1-.03-.007.044.044 0 0 1-.018-.024l-.245-.502v.69a.032.032 0 0 1-.01.023.036.036 0 0 1-.022.008h-.153a.034.034 0 0 1-.022-.008.027.027 0 0 1-.009-.022v-.915c0-.008.003-.016.01-.022a.03.03 0 0 1 .023-.008h.258a.06.06 0 0 1 .03.007.046.046 0 0 1 .013.021Z"/></svg>