<svg xmlns="http://www.w3.org/2000/svg" aria-label="Hubspot logo" viewBox="0 0 149 42"><path d="M16.04 6.953v11.842H5.163V6.953H0v28.269h5.163V23.764H16.04v11.458h5.164V6.953h-5.163zm21.69 19.132a4.272 4.272 0 11-8.545 0v-12.11h-4.897v12.11a9.16 9.16 0 0018.321 0v-12.11h-4.88v12.11zm36.289-10.861c0-2.483 1.642-3.27 3.44-3.27 1.45 0 3.365 1.104 4.618 2.442l3.207-3.78c-1.601-2.166-4.849-3.663-7.508-3.663-5.314 0-9.156 3.112-9.156 8.27 0 9.572 11.698 6.534 11.698 11.892 0 1.651-1.604 3.11-3.44 3.11-2.897 0-3.836-1.415-5.166-2.913l-3.56 3.701c2.277 2.795 5.086 4.214 8.45 4.214 5.047 0 9.108-3.15 9.108-8.073 0-10.625-11.7-7.323-11.7-11.93h.009zm72.371 15.482c-2.893 0-3.716-1.252-3.716-3.17v-8.488h4.499v-4.3h-4.499V9.072l-4.966 2.229v17.29c0 4.422 3.051 6.65 7.235 6.65.657.012 1.313-.041 1.959-.156l1.211-4.46a26.21 26.21 0 01-1.723.075v.005zM56.373 14.117c-2.426 0-4.12.704-5.757 2.31V7.122H45.71V24.37c0 6.456 4.667 10.88 9.913 10.88 5.818 0 10.936-4.503 10.936-10.564 0-5.986-4.71-10.564-10.188-10.564v-.004zm-.031 16.195a5.566 5.566 0 110-11.133 5.566 5.566 0 010 11.133zm53.295-5.884c0-6.073-5.107-10.564-10.936-10.564-5.244 0-9.913 4.423-9.913 10.88V42h4.905v-9.317c1.635 1.603 3.331 2.31 5.754 2.31 5.477 0 10.189-4.578 10.189-10.565h.001zm-4.644-.062a5.566 5.566 0 11-11.133-.001 5.566 5.566 0 0111.133.001z"/><path d="M125.485 13.626V8.698a3.794 3.794 0 002.188-3.42v-.114a3.795 3.795 0 00-3.795-3.795h-.113a3.796 3.796 0 00-3.795 3.795v.114a3.787 3.787 0 002.188 3.42v4.928a10.744 10.744 0 00-5.11 2.25L103.532 5.35c.096-.348.147-.706.152-1.065a4.27 4.27 0 00-2.632-3.956 4.276 4.276 0 10-1.65 8.223 4.231 4.231 0 002.107-.572l13.309 10.356a10.78 10.78 0 00.165 12.143l-4.048 4.05a3.474 3.474 0 00-1.012-.166 3.513 3.513 0 00-.683 6.956 3.51 3.51 0 004.197-3.441 3.443 3.443 0 00-.165-1.012l4.005-4.006A10.8 10.8 0 10130.02 15.43a10.806 10.806 0 00-4.535-1.804zm-1.66 16.209a5.544 5.544 0 01-4.016-1.567 5.533 5.533 0 01-1.677-3.971 5.542 5.542 0 015.693-5.538 5.543 5.543 0 015.346 5.534 5.539 5.539 0 01-5.341 5.54"/></svg>