<svg xmlns="http://www.w3.org/2000/svg" viewBox="0 0 41 40" fill="#fff"><path fill-rule="evenodd" d="M20.5 39.05c10.521 0 19.05-8.529 19.05-19.05S31.021.95 20.5.95 1.45 9.479 1.45 20 9.979 39.05 20.5 39.05Zm0 .95c11.046 0 20-8.954 20-20s-8.954-20-20-20S.5 8.954.5 20s8.954 20 20 20Z" clip-rule="evenodd"/><path fill-rule="evenodd" d="M30.5 21.154H12.038v-2.308H30.5v2.308Z" clip-rule="evenodd"/><path fill-rule="evenodd" d="m13.67 20 6.107-6.107-1.631-1.632-6.923 6.923a1.152 1.152 0 0 0 0 1.631l6.923 6.924 1.631-1.632L13.67 20Z" clip-rule="evenodd"/></svg>