<svg xmlns="http://www.w3.org/2000/svg" aria-label="Meta logo" viewBox="0 0 391.2 97.83"><g><path d="M143.62 12.02h14.82l25.2 45.59 25.2-45.59h14.5v74.91h-12.09V29.52l-22.1 39.75h-11.34l-22.1-39.75v57.41h-12.09zM262.34 88.26c-5.15.11-10.24-1.18-14.73-3.71-4.2-2.44-7.64-6.01-9.92-10.3a31.19 31.19 0 0 1-3.56-15.09c-.11-5.3 1.09-10.54 3.48-15.27 2.2-4.29 5.54-7.88 9.66-10.38 4.3-2.55 9.22-3.84 14.21-3.75a23.52 23.52 0 0 1 22.58 14.34 38.131 38.131 0 0 1 3.1 15.94v3.32h-41a17.71 17.71 0 0 0 5.45 10.81c3.09 2.68 7.08 4.08 11.16 3.93 3.18.07 6.34-.47 9.31-1.61 2.73-1.15 5.21-2.8 7.33-4.87l6.42 7.86c-6.39 5.85-14.22 8.78-23.49 8.78m8.83-44.44a13.29 13.29 0 0 0-10-3.88c-3.74-.08-7.35 1.36-10 4-2.82 2.9-4.62 6.64-5.11 10.65h29.43c-.36-4.57-1.8-8.14-4.33-10.73M301.78 41.02h-11.17v-9.9h11.13V14.75h11.66v16.37h16.91v9.9h-16.87v25.09c0 4.17.71 7.15 2.14 8.93 1.43 1.78 3.87 2.67 7.33 2.68 1.31.01 2.61-.05 3.91-.19a86.1 86.1 0 0 0 3.53-.51v9.79c-1.47.44-2.96.77-4.47 1-1.73.25-3.47.38-5.22.37-12.59 0-18.89-6.88-18.89-20.65l.01-26.51zM391.13 86.89h-11.45v-7.81c-1.97 2.87-4.64 5.2-7.76 6.77-3.33 1.63-7 2.45-10.7 2.38-4.64.08-9.2-1.23-13.08-3.77a25.893 25.893 0 0 1-9-10.38 33.734 33.734 0 0 1-3.26-15.11 33.209 33.209 0 0 1 3.35-15.08c2.06-4.22 5.23-7.79 9.18-10.33 4.03-2.53 8.7-3.84 13.46-3.75 3.55-.06 7.06.7 10.27 2.22 2.99 1.45 5.58 3.61 7.54 6.29v-7.17h11.45v55.74zm-11.66-36.27a15.937 15.937 0 0 0-5.91-7.52 16.184 16.184 0 0 0-9.34-2.76c-4.99 0-8.97 1.67-11.93 5s-4.44 7.86-4.44 13.59c0 5.74 1.43 10.29 4.28 13.64 2.85 3.35 6.72 5.02 11.61 5 3.42.05 6.77-.91 9.63-2.78 2.77-1.79 4.9-4.41 6.1-7.49V50.62z"/><g><defs><path id="metalong_svg_1" d="M12.92 61.39c0-19.29 9.62-39 21.09-39 6.21 0 11.4 3.59 19.35 15-7.55 11.58-12.12 18.84-12.12 18.84-10.05 15.76-13.53 19.29-19.13 19.29-5.76 0-9.18-5.06-9.18-14.08m66.26-7.2-7-11.6c-1.88-3.06-3.69-5.88-5.42-8.45C73.04 24.52 78.2 19.7 84.35 19.7c12.77 0 23 18.8 23 41.9 0 8.8-2.88 13.91-8.86 13.91-5.73 0-8.46-3.78-19.34-21.28M60.97 26.16c-9.46-12-17.36-16.63-26.83-16.63C14.85 9.53.07 34.64.07 61.21c0 16.63 8 27.12 21.52 27.12 9.7 0 16.67-4.57 29.07-26.25l8.73-15.42c1.25 2 2.56 4.17 3.94 6.5l5.81 9.78c11.33 19 17.64 25.38 29.07 25.38 13.13 0 20.43-10.63 20.43-27.61 0-27.82-15.12-51.19-33.48-51.19-9.72 0-17.32 7.32-24.2 16.63"/></defs><use xmlns:xlink="http://www.w3.org/1999/xlink" xlink:href="#metalong_svg_1" overflow="visible"/><clipPath id="SVGID_00000052094653009018568030000009678369629502941844_"><use xmlns:xlink="http://www.w3.org/1999/xlink" xlink:href="#metalong_svg_1" overflow="visible"/></clipPath><g clip-path="url(#SVGID_00000052094653009018568030000009678369629502941844_)"><g><defs><path id="SVGID_00000004525899592099760330000016574002479304413324_" d="M.09 9.49h118.58v78.8H.09z"/></defs><use xmlns:xlink="http://www.w3.org/1999/xlink" xlink:href="#SVGID_00000004525899592099760330000016574002479304413324_" overflow="visible"/><clipPath id="SVGID_00000118374396900182821580000017128800707473323660_"><use xmlns:xlink="http://www.w3.org/1999/xlink" xlink:href="#SVGID_00000004525899592099760330000016574002479304413324_" overflow="visible"/></clipPath><g clip-path="url(#SVGID_00000118374396900182821580000017128800707473323660_)"><g><path d="M118.61 88.89H.28V9.21h118.33v79.68zM58.86 23.17C51.95 14.94 44.27 8.53 32.38 9.63c-4.4.41-8.28 1.54-11.71 4.02C9.26 21.9 4.35 33.96 1.57 47.16c-.11.54.82 1.76 1.45 1.91 1.76.43 3.62.68 5.42.6 3.64-.16 7.27-.55 10.9-.9 6.96-.68 13.71-2.44 19.58-6.2 7.84-5.02 15.28-10.64 19.94-19.4zm24.11 59.05c.72-.54.95-.65 1.09-.83.26-.3.51-.62.7-.97 2.67-5.09 5.19-10.3 5.54-16.12.25-4.08.35-8.32-.45-12.29-1.19-5.91-4.5-10.9-9.5-14.4-6.23-4.35-13.58-2.61-15.57 5.45-.52 2.12-1.6 4.1-2.3 6.19-.24.72-.43 1.75-.1 2.31 4.46 7.42 8.9 14.86 13.62 22.11 1.97 3.04 4.57 5.64 6.97 8.55z"/><path d="M58.86 23.17c-4.66 8.77-12.1 14.38-19.93 19.4-5.87 3.76-12.62 5.52-19.58 6.2-3.63.36-7.26.75-10.9.9-1.8.08-3.67-.18-5.42-.6-.63-.15-1.57-1.37-1.45-1.91 2.77-13.2 7.69-25.26 19.09-33.51 3.43-2.48 7.31-3.61 11.71-4.02 11.89-1.1 19.57 5.31 26.48 13.54zM82.97 82.22c-2.4-2.91-5-5.51-6.97-8.54-4.71-7.26-9.15-14.7-13.62-22.11-.34-.56-.14-1.59.1-2.31.7-2.09 1.78-4.07 2.3-6.19 1.99-8.05 9.34-9.8 15.57-5.45 5 3.49 8.31 8.48 9.5 14.4.8 3.97.7 8.21.45 12.29-.36 5.82-2.88 11.02-5.54 16.12-.18.35-.44.67-.7.97-.14.17-.36.28-1.09.82z"/></g></g></g></g></g><g><defs><path id="SVGID_00000125563218083925213700000013712163417756363933_" d="M34 22.37c8.48 0 15.05 6.68 29.35 30.76l.87 1.47 8-12C57.15 18.09 47.11 9.5 34.16 9.5L34 22.37z"/></defs><use xmlns:xlink="http://www.w3.org/1999/xlink" xlink:href="#SVGID_00000125563218083925213700000013712163417756363933_" overflow="visible"/><clipPath id="SVGID_00000028325140650206586800000005504161962197630632_"><use xmlns:xlink="http://www.w3.org/1999/xlink" xlink:href="#SVGID_00000125563218083925213700000013712163417756363933_" overflow="visible"/></clipPath><g clip-path="url(#SVGID_00000028325140650206586800000005504161962197630632_)"><path transform="rotate(-37.354 53.11 32.036)" d="M24.24 2.51h57.75v59.04H24.24z"/></g></g></g></svg>