<svg xmlns="http://www.w3.org/2000/svg" viewBox="0 0 41 40" fill="#fff"><path fill-rule="evenodd" d="M20.5 39.05c10.521 0 19.05-8.529 19.05-19.05S31.021.95 20.5.95 1.45 9.479 1.45 20 9.979 39.05 20.5 39.05Zm0 .95c11.046 0 20-8.954 20-20s-8.954-20-20-20S.5 8.954.5 20s8.954 20 20 20Z" clip-rule="evenodd"/><path fill-rule="evenodd" d="M10.044 18.847h18.462v2.308H10.044v-2.308Z" clip-rule="evenodd"/><path fill-rule="evenodd" d="m26.874 20-6.107 6.108 1.631 1.632 6.924-6.923c.45-.45.45-1.181 0-1.632l-6.924-6.923-1.631 1.631 6.107 6.108Z" clip-rule="evenodd"/></svg>