<svg xmlns="http://www.w3.org/2000/svg" aria-label="Rite Aid logo" viewBox="0 0 125 55"><path d="M44.48 22.52v-.44V.48l-.02-.4H.08v.44l-.01 21.5v11.06A12.35 12.35 0 001.3 38.1c.47 1 1.04 1.94 1.66 2.85a28.34 28.34 0 003.26 4c1.44 1.48 3 2.82 4.68 4.04a42.76 42.76 0 0011.17 5.84c.16.06.3.03.44-.02 1.12-.43 2.24-.85 3.34-1.33a43.7 43.7 0 005.44-2.88 36.82 36.82 0 005.7-4.34 30.33 30.33 0 003.66-3.99 22.81 22.81 0 002.81-4.64c.6-1.41.98-2.87 1-4.41V22.5zm-24.36-8.53c.68 0 1.18.07 1.67.14.15.02.23.09.26.25a7.22 7.22 0 01-.44 4.43 4.52 4.52 0 01-3.49 2.56c-.98.18-1.96.16-2.94-.05-.11-.02-.22-.02-.25-.18-.3-1.71-.27-3.39.66-4.93a4.56 4.56 0 013.29-2.1c.47-.08.94-.13 1.24-.12zm-8.95-7.46a7.91 7.91 0 012.06-2.03c.11-.07.2-.12.34-.03a7.16 7.16 0 012.84 3.48c.17.47.24.95.23 1.45a5.43 5.43 0 01-1.46 3.48c-.45.54-.99.99-1.54 1.41-.13.1-.24.15-.39.04a7.4 7.4 0 01-2.75-3.37c-.6-1.6-.28-3.07.67-4.43zm-6.38 7.94c.02-.17.05-.3.25-.34a7.2 7.2 0 014.42.47 4.54 4.54 0 012.51 3.46c.18.96.14 1.91 0 2.87-.03.29-.18.4-.43.43-.47.05-.94.12-1.31.1-.99.01-1.84-.1-2.66-.45a4.49 4.49 0 01-2.72-3.36 8.15 8.15 0 01-.06-3.18zm26.28 30.26a33.76 33.76 0 01-3.85 2.52.62.62 0 01-.33.06h-9.21c-.12 0-.23 0-.34-.06a34.23 34.23 0 01-4.04-2.65h17.85c.05.09-.04.1-.08.13zm8.5-11.75a7.6 7.6 0 01-1.1 3.64 25.87 25.87 0 01-4.63 5.84c-.14.13-.29.14-.46.14H11.34a1 1 0 01-.77-.3 24.32 24.32 0 01-4.72-6.16 7.73 7.73 0 01-.88-3.57v-6.58c0-.28.07-.35.34-.35h33.92c.28 0 .37.06.37.36-.02 2.33 0 4.65-.02 6.98zm-.25-19.07c-.79.71-1.7 1.23-2.58 1.82-.58.4-1.21.73-1.63 1.31-.51.73-.93 1.52-1.36 2.3l-1.58 2.79c-.07.12-.12.24-.32.24h-8.73a11 11 0 011.46-1.55c1.97-1.83 4.08-3.5 6.12-5.24.66-.56 1.4-1.06 1.8-1.87.4-.82.72-1.67 1.08-2.5.25-.58.5-1.16.87-1.67.32-.45.62-.56 1.1-.34 1.6.75 2.91 1.87 3.96 3.29.43.58.35.93-.19 1.42zM100.42 36.56a10.43 10.43 0 00-7.08-7.91c-1.47-.5-2.97-.74-4.51-.75-2.06-.02-4.12 0-6.18-.01-.28 0-.36.05-.36.35V50.5c0 .3.08.35.36.35 2.2-.01 4.41 0 6.62 0 .7 0 1.38-.1 2.06-.21.88-.15 1.75-.4 2.59-.74a10.69 10.69 0 004.07-2.82c.76-.87 1.37-1.83 1.81-2.9.47-1.12.76-2.3.86-3.5.05-.68.11-1.36.03-2.06-.08-.69-.13-1.38-.27-2.06zm-3.83 6.01a6.87 6.87 0 01-3.73 4.27c-.91.43-1.88.66-2.89.79-1.28.16-2.57.09-3.86.12-.27 0-.3-.1-.3-.34v-8.05l-.01-8c0-.28.07-.38.37-.37.82.02 1.65-.03 2.47 0 1.57.07 3.1.31 4.52 1.06 1.7.9 2.85 2.29 3.43 4.14.28.9.42 1.83.45 2.78a10.4 10.4 0 01-.45 3.6zM53.25 23.03h2.95c.26 0 .33-.07.32-.33V17.5c0-.12-.06-.25.06-.35.11-.1.24-.05.36-.05h1.96c.4-.03.81.02 1.22-.06.2-.04.45-.1.63.17 1.22 1.84 2.47 3.67 3.7 5.5.15.25.33.36.63.33.32-.03.64 0 .97 0h2.69l-.55-.84-4.07-5.96c-.15-.21-.16-.3.12-.43a7.22 7.22 0 002.63-2 7.4 7.4 0 001.61-4.3c.08-1.21 0-2.42-.35-3.6a7.31 7.31 0 00-3.7-4.6A11.07 11.07 0 0059.35.07h-6.33v.07L53 22.78c0 .2.06.25.25.25zm3.56-19.86c.7.01 1.42-.03 2.13.01 1.27.08 2.53.22 3.66.88 1 .58 1.68 1.43 2.01 2.55.15.5.24.99.26 1.5.09.36.09.71 0 1.07a5.2 5.2 0 01-1 2.95 4.47 4.47 0 01-1.98 1.4 7.9 7.9 0 01-2.14.46c-1 .1-2 .02-3 .06-.2.01-.23-.08-.23-.26V3.46c0-.22.07-.3.29-.29zM105.6 19.93c-.1 0-.2.04-.29-.07V15.6c0-.47-.06-.41.4-.41h8.93c.16 0 .34.06.33-.23l-.01-2.8h-9.36c-.1 0-.2.03-.29-.07V3.84c0-.66 0-.66.65-.66h9.94c.15 0 .33.06.33-.23-.02-.96-.01-1.92-.02-2.87h-14.47v.18l-.01 22.47c0 .28.1.3.33.3h13.76l.84-.01v-3.1H105.6zM67.7 43.86c-.83-1.92-1.64-3.86-2.47-5.79l-1.97-4.56-2.42-5.65c-.06-.13-.1-.24-.3-.23-.2 0-.23.13-.28.26-.6 1.39-1.18 2.78-1.77 4.18l-2.63 6.32c-.79 1.88-1.6 3.75-2.38 5.63a1131 1131 0 00-2.44 5.8c-.13.33-.32.65-.38 1.02h3.13c.18 0 .27-.05.33-.21.3-.8.61-1.57.94-2.35.28-.66.26-.66.94-.66h9.47c.23 0 .33.06.41.28.35.9.74 1.8 1.09 2.72.07.2.16.23.33.23h3.41l-1.47-3.45c-.5-1.18-1.03-2.35-1.54-3.54zm-11.17.77c1.28-3.54 2.94-6.9 3.95-10.58 1.1 3.66 2.68 7.06 4 10.58h-7.95zM87.23 3.18c.45 0 .4-.06.4.4v19.03c0 .48-.06.41.42.42h2.66c.49 0 .43.06.43-.42V3.6c0-.47-.06-.41.4-.41h6.07c.16 0 .31.03.3-.23V.07H80.85l-.01 2.79c-.01.27.08.32.33.32h6.05zM76.55 27.89c-.92.02-1.84.02-2.76 0-.28 0-.35.06-.35.34l.01 11.12v11.16c0 .29.07.35.34.34.94-.02 1.88-.01 2.82 0 .23 0 .3-.05.3-.3-.02-1.54-.01-3.1-.01-4.64V28.24c0-.3-.08-.36-.36-.35zM73.45 23.02c1.02 0 2.05-.01 3.07.01.33.01.39-.09.39-.4L76.9.42l-.01-.35h-3.44v22.95zM124.06.07c-.4.52-.82 1.02-1.18 1.56-.2.3-.31.17-.45 0L121.24.06h-.43l-.01 3.57c0 .21.09.23.26.24.19 0 .25-.06.25-.25V1.36c0-.1-.04-.2.03-.31.07.06.13.1.17.16l.89 1.2c.2.27.34.26.54-.02l.92-1.21c.04-.06.06-.16.15-.13.09.02.05.12.05.19v2.2c0 .44 0 .44.44.42V.08h-.44zM.42.05h43.7c.12 0 .24-.03.35.02-.08-.11-.2-.06-.29-.06H.36C.27.01.16-.04.08.07.2.02.31.05.42.05zM118.17.08V.5c.12 0 .25.02.37 0 .3-.03.4.1.39.4-.02.86-.01 1.72 0 2.59 0 .16-.1.38.23.38.32 0 .26-.19.26-.37 0-.86.02-1.72 0-2.59-.01-.31.08-.43.4-.4.43.02.43 0 .4-.45h-2.05zM73.45 23.02c-.05-.11-.03-.23-.03-.35V.41c0-.11-.02-.23.03-.34-.1.08-.06.2-.06.29v22.37c0 .1-.06.21.06.29zM81.17.05h16.42c.1 0 .21-.03.3.02-.06-.11-.18-.06-.27-.06H81.14c-.1 0-.2-.05-.28.06.1-.05.2-.02.3-.02zM102.05.05h13.86c.1 0 .2-.03.3.02-.07-.11-.19-.06-.28-.06h-13.9c-.1 0-.21-.05-.28.06.1-.05.2-.02.3-.02z"/><path d="M105.65 19.9h10.68c.11 0 .23-.03.33.03-.1-.12-.23-.06-.34-.06h-11c.1.06.22.03.33.03zM.04 32.8V22.3c0-.1-.02-.2.03-.29-.1.08-.06.2-.06.3v10.48c0 .1-.05.21.06.3-.05-.1-.03-.2-.03-.29zM44.54 22.8c0-.09.05-.2-.06-.28.05.09.03.18.03.28v10.13c0 .1.02.19-.03.28.1-.08.06-.2.06-.3v-10.1zM105.65 12.12h8.97c.11 0 .23-.02.34.03-.1-.12-.23-.06-.34-.06h-9.3c.1.06.22.03.33.03zM53.23.05h5.9c.07 0 .14-.02.21.02-.05-.1-.15-.05-.22-.06h-5.89c-.07 0-.17-.04-.22.06.07-.04.15-.02.22-.02zM124.56.27c0-.07.03-.16-.06-.2.06.14.03.27.03.4v3.08c0 .1.03.21-.03.31.09-.03.06-.1.06-.16V.27zM124.5.07zM73.45.07c.24-.06.49-.02.74-.02h2.4c.1 0 .2-.03.3.02-.03-.08-.1-.06-.16-.06h-3.1c-.06 0-.14-.02-.18.06zM73.45.07zM73.45.07zM116.66 19.92c.07.38.03.75.03 1.13 0 .65.04 1.31-.02 1.97.06-.02.05-.08.05-.13v-2.8c0-.06.02-.13-.06-.17zM116.66 19.93zM116.67 19.93zM57.17 17.12c-.2 0-.4-.03-.59.02h2.16c.06 0 .13.02.16-.05-.57.06-1.15 0-1.73.03zM118.17.07c.68-.04 1.37-.04 2.06 0-.02-.06-.08-.06-.13-.06h-1.77c-.06 0-.13 0-.17.06zM118.16.08c-.1.14-.1.28 0 .43a.74.74 0 010-.43zM118.16.08zM124.5.07a.37.37 0 00-.44 0c.15-.04.3-.04.44 0zM124.5.07zM124.5.08h.01zM121.24.07c-.14-.09-.28-.1-.43 0a.73.73 0 01.43 0zM64.87 9.18c.03-.36.03-.71 0-1.07v1.07z"/></svg>