<svg xmlns="http://www.w3.org/2000/svg" viewBox="0 0 192 30" color="#1A2E3B"><path d="M0 15.463c.355 1.17 1.186 1.483 2.344 1.483 3.476-.044 6.952 0 10.428 0h.517c-.097.178-.15.293-.216.4l-3.555 5.718c-.771 1.248-1.568 2.497-2.312 3.745a1.748 1.748 0 0 0 .628 2.416 1.662 1.662 0 0 0 2.277-.624c2.525-4.074 5.047-8.154 7.567-12.239a1.934 1.934 0 0 0-.125-2.39 2.501 2.501 0 0 1-.173-.26l-4.37-7.66c-.816-1.432-1.625-2.87-2.453-4.3A1.59 1.59 0 0 0 8.882.906a1.63 1.63 0 0 0-1.378 1.127 1.864 1.864 0 0 0 .217 1.635c1.775 3.107 3.547 6.214 5.314 9.32.072.125.126.263.214.46H1.763a1.656 1.656 0 0 0-1.049.317c-.303.222-.52.54-.617.902-.025.085-.062.166-.097.25v.546Zm192 6.243c-.264-.493-.687-.624-1.227-.624h-6.585v-4.76h4.929c.699 0 1.032-.312 1.051-1.02v-.585c0-.836-.295-1.13-1.13-1.133h-4.392c-.153 0-.313 0-.461-.021V8.909h5.839c1.433 0 1.568-.144 1.568-1.56 0-.89-.314-1.193-1.201-1.193h-8.267c-.875 0-1.17.312-1.173 1.176v15.335c0 .88.288 1.165 1.179 1.165h8.662c.549 0 .963-.14 1.208-.65v-1.476ZM141.453 11.22c-.019-.032 0 0 .018.034.314 1.348.628 2.706.964 4.057.646 2.526 1.32 5.048 1.985 7.57.192.714.509.952 1.255.958h1.462c.988 0 1.236-.19 1.484-1.13.889-3.404 1.776-6.809 2.661-10.213.454-1.745.913-3.49 1.352-5.24.16-.647-.148-1.04-.81-1.077a13.186 13.186 0 0 0-1.217 0c-.787 0-1.067.23-1.255 1.005l-2.604 10.827c-.169.709-.288 1.427-.442 2.185-.116-.543-.201-1.039-.314-1.53-.943-3.67-1.891-7.34-2.842-11.008-.367-1.433-.421-1.483-1.901-1.48-.957 0-1.23.225-1.472 1.159-1.11 4.242-2.213 8.486-3.306 12.731-.06-.396-.104-.833-.198-1.248a1462.83 1462.83 0 0 0-1.798-7.938c-.273-1.201-.549-2.403-.819-3.608-.197-.864-.483-1.092-1.383-1.095h-.982c-.841.015-1.136.387-.941 1.201.523 2.117 1.052 4.232 1.587 6.346.766 3.046 1.53 6.094 2.294 9.142.188.743.498.977 1.28.98h1.531c.865 0 1.148-.206 1.364-1.027 1.017-3.892 2.036-7.772 3.047-11.601Zm-32.722 3.23.135-.097c2.077-1.373 2.554-4.485.96-6.398-1.02-1.227-2.419-1.71-3.953-1.76-1.961-.063-3.922-.035-5.882-.032-.772 0-1.076.328-1.076 1.114v15.45c0 .803.313 1.102 1.116 1.106h5.528a7.566 7.566 0 0 0 2.758-.5c3.137-1.22 4.223-5.19 2.036-7.653-.439-.5-1.076-.824-1.622-1.23Zm-26.535 1.873c.27-.162.555-.312.803-.48 1.487-1.109 2.099-2.635 2.096-4.44 0-1.67-.543-3.12-1.914-4.163-1.029-.787-2.233-1.033-3.498-1.046a672.656 672.656 0 0 0-5.603-.019c-.869 0-1.139.269-1.164 1.143V22.436c0 .181 0 .363.022.544a.818.818 0 0 0 .54.797.83.83 0 0 0 .339.048h1.098c.94 0 1.207-.274 1.207-1.21v-5.357h2.698a.57.57 0 0 1 .603.362c.96 1.83 1.939 3.65 2.908 5.472.191.362.445.69.866.715.69.047 1.383.047 2.074 0 .458-.028.662-.406.527-.85a2.328 2.328 0 0 0-.204-.461l-3.398-6.174ZM61.901 24.2c.775-.103 1.569-.165 2.319-.312a9.388 9.388 0 0 0 3.921-1.873c.574-.453.628-.936.204-1.526-.129-.178-.267-.353-.398-.53-.502-.678-.866-.719-1.585-.266-.595.4-1.225.747-1.882 1.036-2.99 1.211-6.184.15-7.614-2.566a6.815 6.815 0 0 1-.292-5.899 5.18 5.18 0 0 1 1.445-2.085 5.216 5.216 0 0 1 2.267-1.155 6.795 6.795 0 0 1 4.765.49c.386.188.75.425 1.13.625.545.287.94.187 1.273-.313.126-.184.239-.374.355-.561.542-.874.454-1.283-.415-1.83a10.08 10.08 0 0 0-6.823-1.46c-2.623.327-4.753 1.53-6.256 3.714-1.377 1.998-1.785 4.242-1.49 6.617a8.757 8.757 0 0 0 2.422 5.21c1.816 1.835 4.082 2.61 6.654 2.684Zm57.362-15.294H125.685c.627 0 .957-.294.997-.9a6.972 6.972 0 0 0 0-.817c-.031-.712-.332-1.024-1.051-1.024h-8.542c-.719 0-1.023.312-1.023 1.033v15.607c0 .743.295 1.03 1.054 1.03h8.856c.804 0 1.092-.29 1.105-1.074v-.468c0-.936-.27-1.202-1.221-1.205h-6.23c-.314 0-.402-.09-.399-.396v-4.018c0-.112.019-.224.029-.361h4.928c.725 0 1.048-.313 1.064-1.046v-.584c0-.815-.295-1.105-1.111-1.108h-4.467c-.333 0-.458-.072-.452-.427.022-1.274 0-2.55 0-3.824.013-.122.028-.25.041-.415v-.003Zm-75.922 15.25c.442-.04.888-.05 1.324-.125 1.798-.312 3.244-1.136 4.078-2.809.898-1.823.926-4.6-1.697-6.205-.784-.48-1.644-.84-2.472-1.248-.885-.44-1.8-.828-2.648-1.333a1.768 1.768 0 0 1-.904-1.96c.167-.84.757-1.277 1.535-1.492 1.336-.369 2.582-.069 3.765.568.229.121.451.262.693.362a.8.8 0 0 0 1.13-.381c.184-.312.36-.624.523-.958a.933.933 0 0 0-.313-1.33A6.728 6.728 0 0 0 47.1 6.55c-2.247-.886-4.502-1.014-6.708.119-2.36 1.214-3.32 4.12-2.149 6.373a4.833 4.833 0 0 0 2.074 2.032c1.057.559 2.174 1.012 3.234 1.56.684.321 1.322.73 1.898 1.215 1.001.937.703 2.416-.523 3.01-.21.105-.435.183-.666.23-1.512.293-2.86-.14-4.125-.936a4.305 4.305 0 0 0-.71-.403.8.8 0 0 0-1.016.256c-.284.372-.549.759-.793 1.158a.786.786 0 0 0 .16 1.061c.14.128.294.242.458.34a9.562 9.562 0 0 0 5.095 1.595l.012-.003Zm127.2.019c.568-.072 1.142-.106 1.704-.222a5.1 5.1 0 0 0 3.241-2.044 5.05 5.05 0 0 0 .887-3.714c-.197-1.48-1.048-2.535-2.299-3.262-.822-.478-1.707-.84-2.56-1.249-.854-.409-1.676-.786-2.463-1.248a1.78 1.78 0 0 1-.888-1.935c.157-.834.753-1.277 1.531-1.499a4.681 4.681 0 0 1 3.282.313c.392.174.756.412 1.148.586.53.24.894.113 1.189-.387.163-.28.314-.565.471-.855.329-.624.251-1.099-.368-1.47-2.487-1.495-5.104-1.839-7.767-.568-2.601 1.248-3.185 3.933-2.46 5.986.42 1.196 1.34 1.973 2.419 2.554.847.459 1.744.82 2.607 1.248.699.315 1.374.68 2.02 1.093.379.273.673.646.851 1.076.442 1.121-.314 2.239-1.641 2.498-1.525.312-2.89-.14-4.16-.962a3.932 3.932 0 0 0-.697-.359.825.825 0 0 0-1.07.312c-.191.247-.36.51-.539.765-.527.762-.446 1.202.336 1.72a9.758 9.758 0 0 0 5.214 1.626l.012-.003Zm-80.423-9.18v7.838c0 .68.295.983.97.995h1.37a.774.774 0 0 0 .803-.705c.03-.166.043-.334.041-.502V7.414a3.287 3.287 0 0 0 0-.35.87.87 0 0 0-.583-.838.882.882 0 0 0-.358-.048c-.377-.02-.756 0-1.136 0-.819 0-1.101.293-1.101 1.114l-.006 7.703Zm69.96 0V7.133a.85.85 0 0 0-.236-.709.868.868 0 0 0-.705-.256c-.483-.019-.966 0-1.449.016a.758.758 0 0 0-.756.665 2.51 2.51 0 0 0-.05.54v15.559a.862.862 0 0 0 .941.88h1.135c.832 0 1.108-.277 1.108-1.098l.012-7.735ZM25.38 2.251a1.85 1.85 0 0 0-.408-1.056 1.864 1.864 0 0 0-.95-.623 1.668 1.668 0 0 0-1.951.768 1196.772 1196.772 0 0 0-4.298 7.606 1.733 1.733 0 0 0 .681 2.381 1.75 1.75 0 0 0 2.384-.71c1.411-2.498 2.817-4.989 4.216-7.473.134-.288.243-.587.326-.893Zm.082 25.488a4.245 4.245 0 0 0-.292-.827c-1.479-2.51-2.967-5.012-4.464-7.51a1.752 1.752 0 0 0-2.374-.603c-.396.231-.685.607-.804 1.048-.12.44-.06.91.166 1.307a807.946 807.946 0 0 0 4.49 7.54 1.664 1.664 0 0 0 1.936.737 1.827 1.827 0 0 0 1.343-1.692Zm.602-14.357v.13c-1.226 0-2.453-.027-3.68 0-1 .032-1.622.793-1.587 1.84a1.643 1.643 0 0 0 .529 1.154 1.66 1.66 0 0 0 1.196.44l8.418-.087c.246.01.494-.007.737-.05.881-.213 1.377-1.002 1.255-1.967a1.665 1.665 0 0 0-.556-1.042 1.68 1.68 0 0 0-1.11-.415c-1.732-.01-3.467-.003-5.202-.003Z" fill="currentColor"/><path d="M0 14.918c.035-.085.072-.166.097-.25.096-.362.314-.68.617-.902a1.655 1.655 0 0 1 1.05-.318h11.485c-.088-.197-.142-.334-.214-.46-1.77-3.108-3.54-6.215-5.314-9.32a1.867 1.867 0 0 1-.217-1.635A1.616 1.616 0 0 1 8.882.906a1.6 1.6 0 0 1 1.675.846c.828 1.43 1.637 2.869 2.453 4.301l4.37 7.66c.052.09.11.176.173.259a1.936 1.936 0 0 1 .125 2.39c-2.51 4.086-5.036 8.168-7.58 12.249a1.65 1.65 0 0 1-1.006.787 1.662 1.662 0 0 1-1.27-.163A1.76 1.76 0 0 1 7 28.157a1.745 1.745 0 0 1 .194-1.338c.753-1.248 1.54-2.497 2.312-3.745l3.567-5.753c.066-.106.12-.222.216-.4h-.517c-3.476 0-6.952-.027-10.428 0-1.158.026-1.99-.287-2.344-1.457v-.546ZM192.001 23.189c-.245.509-.659.652-1.208.649h-8.662c-.891 0-1.177-.284-1.18-1.164V7.339c0-.874.314-1.177 1.174-1.177h8.272c.901 0 1.199.312 1.202 1.192 0 1.411-.141 1.561-1.569 1.561h-5.838v4.635c.154 0 .314.022.461.022h4.392c.835 0 1.127.312 1.13 1.133v.584c-.025.696-.37 1.033-1.058 1.033h-4.928v4.76h6.585c.54 0 .963.137 1.227.624v1.483ZM141.452 11.218c-1.01 3.83-2.029 7.71-3.052 11.587-.217.82-.499 1.023-1.365 1.026h-1.531c-.781 0-1.092-.237-1.28-.98-.765-3.046-1.53-6.093-2.293-9.142l-1.588-6.346c-.204-.814.091-1.186.941-1.201h.982c.901 0 1.186.23 1.384 1.095.27 1.205.546 2.407.819 3.609.602 2.646 1.201 5.292 1.797 7.937.095.424.138.861.198 1.248 1.104-4.236 2.209-8.483 3.313-12.74.242-.937.515-1.156 1.471-1.159 1.481 0 1.535.047 1.902 1.48.943 3.67 1.89 7.34 2.842 11.009.125.49.21.986.314 1.53.153-.756.273-1.474.442-2.186.864-3.612 1.732-7.221 2.604-10.828.185-.774.464-.995 1.255-1.005h1.217c.662.038.969.431.809 1.077-.439 1.751-.897 3.496-1.352 5.24-.88 3.42-1.767 6.83-2.66 10.232-.248.937-.496 1.13-1.484 1.13h-1.453c-.756 0-1.072-.243-1.254-.958-.666-2.522-1.34-5.044-1.986-7.569-.345-1.345-.643-2.703-.963-4.058-.016-.028-.048-.059-.029-.028ZM108.731 14.45c.545.405 1.182.73 1.621 1.226 2.197 2.463 1.111 6.433-2.036 7.653a7.557 7.557 0 0 1-2.757.5h-5.528c-.813 0-1.117-.312-1.117-1.105V7.274c0-.787.314-1.112 1.076-1.115 1.961 0 3.922-.031 5.882.031 1.535.05 2.934.534 3.953 1.76 1.594 1.914 1.117 5.026-.96 6.4l-.134.1Zm-6.589 1.535v5.085c1.29 0 2.545.071 3.79-.02 1.471-.105 2.3-1.216 2.215-2.768-.075-1.367-1.085-2.29-2.51-2.297h-3.495Zm0-7.017v4.414h2.99c.21.004.42-.01.628-.044 1.054-.196 1.709-1.067 1.703-2.244-.006-1.177-.627-2.013-1.719-2.104-1.18-.097-2.369-.022-3.602-.022ZM82.196 16.322l3.398 6.17c.084.147.153.302.204.462.135.444-.07.821-.528.85a15.3 15.3 0 0 1-2.073 0c-.42-.026-.675-.353-.866-.715-.97-1.823-1.948-3.643-2.908-5.472a.566.566 0 0 0-.603-.362c-.884.022-1.77 0-2.698 0V22.627c0 .936-.273 1.208-1.208 1.21h-1.098a.83.83 0 0 1-.818-.51.816.816 0 0 1-.06-.335c0-.181-.022-.362-.022-.543V7.31c.025-.874.295-1.145 1.164-1.142 1.882 0 3.736 0 5.603.019 1.255 0 2.47.259 3.498 1.045 1.371 1.052 1.91 2.497 1.914 4.164 0 1.804-.609 3.33-2.096 4.439-.238.174-.524.312-.803.487Zm-6.055-1.873c1.13 0 2.224.06 3.313-.019.508-.01.998-.186 1.395-.5.397-.315.678-.752.801-1.242.125-.489.168-.995.129-1.498a2.179 2.179 0 0 0-.493-1.334 2.198 2.198 0 0 0-1.214-.75c-1.29-.344-2.61-.132-3.943-.191l.012 5.534ZM61.9 24.2c-2.572-.084-4.837-.849-6.653-2.71a8.758 8.758 0 0 1-2.422-5.209c-.295-2.375.113-4.62 1.49-6.617 1.503-2.185 3.633-3.386 6.256-3.714a10.08 10.08 0 0 1 6.823 1.46c.87.547.957.956.414 1.83-.116.187-.229.377-.354.561-.342.51-.728.625-1.274.313-.38-.2-.743-.437-1.13-.625A6.795 6.795 0 0 0 60.286 9a5.217 5.217 0 0 0-2.27 1.165 5.18 5.18 0 0 0-1.441 2.1 6.81 6.81 0 0 0 .292 5.915c1.43 2.716 4.611 3.78 7.62 2.556a12.088 12.088 0 0 0 1.882-1.036c.719-.453 1.083-.412 1.585.265.132.178.27.353.398.531.424.596.37 1.074-.204 1.526a9.388 9.388 0 0 1-3.921 1.873c-.769.14-1.55.203-2.325.306ZM119.262 8.91c0 .165-.028.293-.028.418v3.823c0 .356.119.431.452.428 1.49-.016 2.977 0 4.467 0 .816 0 1.104.293 1.111 1.108v.584c-.016.724-.339 1.045-1.064 1.045h-4.938c0 .138-.028.25-.028.362v4.017c0 .313.085.4.398.397h6.231c.941 0 1.217.268 1.22 1.205v.468c0 .783-.313 1.074-1.104 1.074h-8.857c-.759 0-1.054-.287-1.054-1.03V7.202c0-.718.314-1.033 1.023-1.033h8.543c.718 0 1.019.312 1.051 1.024.016.272.016.545 0 .818-.041.605-.361.895-.998.898H119.262ZM43.33 24.16a9.562 9.562 0 0 1-5.096-1.596 2.866 2.866 0 0 1-.458-.365.79.79 0 0 1-.16-1.061c.245-.4.51-.786.794-1.158a.797.797 0 0 1 1.017-.256c.248.111.486.246.709.403 1.254.805 2.613 1.248 4.125.936.231-.047.455-.125.665-.231 1.227-.593 1.525-2.085.524-3.009a8.61 8.61 0 0 0-1.898-1.19c-1.06-.552-2.177-1.004-3.234-1.56a4.832 4.832 0 0 1-2.106-2.038c-1.17-2.254-.21-5.16 2.15-6.374 2.195-1.133 4.46-1.005 6.707-.118.442.186.863.42 1.255.696a.941.941 0 0 1 .446.597.932.932 0 0 1-.133.732c-.163.328-.338.647-.523.959a.794.794 0 0 1-.811.481.8.8 0 0 1-.319-.1c-.241-.1-.464-.24-.693-.363-1.19-.624-2.435-.936-3.765-.568-.778.216-1.368.653-1.534 1.492a1.768 1.768 0 0 0 .904 1.96c.847.506 1.763.893 2.647 1.333.829.412 1.688.771 2.473 1.249 2.622 1.604 2.594 4.37 1.697 6.205-.828 1.685-2.275 2.519-4.079 2.81-.417.099-.862.099-1.305.133ZM170.528 24.179a9.759 9.759 0 0 1-5.195-1.648c-.781-.518-.863-.958-.336-1.72.179-.256.349-.518.54-.765a.82.82 0 0 1 1.051-.29c.238.104.465.232.678.38 1.255.822 2.635 1.268 4.16.962 1.33-.268 2.083-1.386 1.64-2.497a2.496 2.496 0 0 0-.831-1.098 15.98 15.98 0 0 0-2.014-1.109c-.863-.43-1.76-.792-2.607-1.248-1.079-.58-1.999-1.358-2.419-2.553-.725-2.054-.141-4.75 2.46-5.987 2.663-1.27 5.28-.936 7.768.568.627.372.696.834.367 1.47-.151.29-.314.575-.471.855-.295.5-.659.625-1.189.388-.392-.175-.756-.412-1.148-.587a4.681 4.681 0 0 0-3.282-.312c-.778.221-1.374.664-1.531 1.498a1.78 1.78 0 0 0 .888 1.935c.787.475 1.638.852 2.463 1.249.825.396 1.738.783 2.56 1.248 1.255.727 2.102 1.782 2.299 3.262a5.048 5.048 0 0 1-.886 3.73 5.097 5.097 0 0 1-3.258 2.047c-.565.116-1.139.15-1.707.222ZM90.117 14.996V7.271c0-.821.282-1.105 1.101-1.114h1.136a.883.883 0 0 1 .873.533.87.87 0 0 1 .068.353c.007.116.007.233 0 .35V22.6a2.67 2.67 0 0 1-.04.502.766.766 0 0 1-.794.712c-.455.022-.913.018-1.371 0-.675 0-.97-.312-.97-.996v-6.823l-.003-.999ZM160.079 15.011v7.723c0 .82-.276 1.095-1.107 1.098h-1.136a.866.866 0 0 1-.877-.525.863.863 0 0 1-.064-.355V7.392a2.645 2.645 0 0 1 .05-.54.76.76 0 0 1 .756-.665 14.98 14.98 0 0 1 1.45-.015.864.864 0 0 1 .941.964v4.798l-.013 3.077ZM25.38 2.251c-.079.308-.184.609-.313.899-1.395 2.497-2.8 4.988-4.217 7.472a1.74 1.74 0 0 1-1.042.852 1.756 1.756 0 0 1-1.868-.58 1.735 1.735 0 0 1-.155-1.942 892.603 892.603 0 0 1 4.286-7.612 1.668 1.668 0 0 1 1.951-.768c.374.104.706.322.95.623.243.3.386.67.409 1.056ZM25.462 27.74c-.016.387-.154.759-.395 1.063a1.842 1.842 0 0 1-.948.628 1.665 1.665 0 0 1-1.936-.73 818.218 818.218 0 0 1-4.492-7.541 1.73 1.73 0 0 1 .624-2.379 1.755 1.755 0 0 1 2.39.622c1.5 2.497 2.99 5 4.468 7.51.125.264.222.542.289.826ZM26.064 13.382h5.208a1.68 1.68 0 0 1 1.112.414c.307.269.505.64.557 1.043.116.965-.38 1.755-1.255 1.967-.244.043-.49.06-.738.05l-8.426.09a1.667 1.667 0 0 1-1.577-.965 1.645 1.645 0 0 1-.149-.63c-.034-1.045.587-1.807 1.588-1.838 1.226-.037 2.453 0 3.68 0v-.131Z" fill="currentColor"/><path d="M102.152 15.984H105.643c1.428 0 2.438.937 2.51 2.298.085 1.56-.743 2.662-2.215 2.768-1.255.09-2.51.019-3.79.019l.004-5.085ZM102.142 8.968c1.233 0 2.422-.075 3.598.022 1.092.09 1.713.936 1.719 2.104.007 1.167-.649 2.047-1.703 2.244a3.466 3.466 0 0 1-.628.044h-2.989l.003-4.414ZM76.15 14.45V8.903c1.334.06 2.654-.153 3.944.19.477.109.905.373 1.214.75.309.379.482.848.493 1.335.039.503-.005 1.01-.13 1.499-.122.49-.403.926-.8 1.24-.397.316-.887.492-1.395.501-1.101.078-2.196.032-3.326.032Z" fill="currentColor"/></svg>