<svg aria-label="Shopify logo" fill="none" viewBox="0 0 119 34" xmlns="http://www.w3.org/2000/svg" class="sc-1s5iqou-0 fZWhu"><path d="M26.02 6.99427C25.9965 6.83249 25.8556 6.74004 25.7382 6.74004C25.6208 6.74004 23.2965 6.69382 23.2965 6.69382C23.2965 6.69382 21.3478 4.84493 21.16 4.63693C20.9721 4.45204 20.5965 4.49827 20.4556 4.54449C20.4556 4.54449 20.08 4.66004 19.4695 4.84493C19.3756 4.52138 19.2113 4.12849 19 3.71249C18.3191 2.41827 17.2861 1.72493 16.0652 1.72493C15.9713 1.72493 15.9008 1.72493 15.8069 1.74804C15.76 1.70182 15.7365 1.6556 15.6895 1.63249C15.1495 1.07782 14.4687 0.800489 13.6469 0.8236C12.0739 0.869822 10.5008 2.00227 9.20954 3.98982C8.31736 5.3996 7.63649 7.15604 7.42519 8.5196C5.61736 9.07427 4.34954 9.46715 4.30258 9.46715C3.38693 9.74449 3.36345 9.7676 3.24606 10.6227C3.1991 11.2698 0.804321 29.5045 0.804321 29.5045L20.9017 32.9249L29.6121 30.7987C29.5887 30.7987 26.0434 7.15604 26.02 6.99427ZM18.46 5.16849C17.9904 5.30716 17.4739 5.46893 16.9104 5.65382C16.9104 4.86804 16.793 3.75871 16.4408 2.83427C17.6382 3.01916 18.2252 4.3596 18.46 5.16849ZM15.8539 5.95427C14.7974 6.27782 13.6469 6.62449 12.4965 6.97116C12.8252 5.74627 13.4356 4.54449 14.1869 3.7356C14.4687 3.43516 14.8678 3.1116 15.3139 2.92671C15.7835 3.82804 15.8774 5.09916 15.8539 5.95427ZM13.6939 1.8636C14.0695 1.8636 14.3748 1.93293 14.633 2.11782C14.2104 2.32582 13.7878 2.64938 13.4121 3.06538C12.4026 4.12849 11.6278 5.76938 11.3226 7.36404C10.36 7.66449 9.42084 7.94182 8.57562 8.19604C9.1391 5.67693 11.2756 1.93293 13.6939 1.8636Z" fill="black"/><path d="M25.7375 6.74015C25.6201 6.74015 23.2958 6.69393 23.2958 6.69393C23.2958 6.69393 21.3471 4.84504 21.1593 4.63704C21.0888 4.56771 20.9949 4.52148 20.901 4.52148V32.925L29.6114 30.7988C29.6114 30.7988 26.0662 7.15615 26.0427 6.99437C25.9958 6.8326 25.8549 6.74015 25.7375 6.74015Z" fill="black"/><path d="M16.0649 11.1542L15.0554 14.8751C15.0554 14.8751 13.9284 14.3667 12.5901 14.4591C10.618 14.5747 10.618 15.7995 10.618 16.1C10.7354 17.764 15.1728 18.1338 15.431 22.0395C15.6188 25.1133 13.7875 27.2164 11.111 27.3782C7.91797 27.54 6.1571 25.6911 6.1571 25.6911L6.83797 22.8484C6.83797 22.8484 8.62232 24.1658 10.031 24.0733C10.9467 24.0271 11.2988 23.2644 11.2519 22.756C11.111 20.5835 7.49537 20.7222 7.26058 17.14C7.07276 14.1355 9.06841 11.108 13.4823 10.8307C15.1962 10.7151 16.0649 11.1542 16.0649 11.1542Z" fill="white"/><path d="M41.3986 19.0814C40.3891 18.5499 39.8725 18.0876 39.8725 17.4636C39.8725 16.6779 40.6004 16.1694 41.7273 16.1694C43.0421 16.1694 44.216 16.701 44.216 16.701L45.1317 13.9276C45.1317 13.9276 44.2864 13.2805 41.7978 13.2805C38.323 13.2805 35.9047 15.245 35.9047 17.9952C35.9047 19.5667 37.0317 20.7454 38.5343 21.6005C39.7551 22.2707 40.1778 22.7561 40.1778 23.4725C40.1778 24.2121 39.5673 24.813 38.4404 24.813C36.7734 24.813 35.1769 23.9578 35.1769 23.9578L34.1908 26.7312C34.1908 26.7312 35.6464 27.7018 38.1117 27.7018C41.6804 27.7018 44.263 25.9685 44.263 22.8485C44.2395 21.1614 42.9482 19.9596 41.3986 19.0814Z" fill="black"/><path d="M55.6266 13.2342C53.8657 13.2342 52.4805 14.0662 51.424 15.3142L51.3771 15.2911L52.9031 7.43335H48.9353L45.0614 27.4476H49.0292L50.344 20.6067C50.8605 18.0182 52.2223 16.4236 53.4901 16.4236C54.3823 16.4236 54.7344 17.0245 54.7344 17.8796C54.7344 18.4111 54.6875 19.0814 54.5701 19.6129L53.0675 27.4476H57.0353L58.5849 19.3587C58.7492 18.5036 58.8666 17.4867 58.8666 16.7934C58.8901 14.5747 57.7162 13.2342 55.6266 13.2342Z" fill="black"/><path d="M67.8822 13.2344C63.0927 13.2344 59.9231 17.4868 59.9231 22.2246C59.9231 25.2522 61.8248 27.7019 65.3935 27.7019C70.0892 27.7019 73.2587 23.565 73.2587 18.7117C73.2822 15.9153 71.6153 13.2344 67.8822 13.2344ZM65.9335 24.7206C64.5718 24.7206 64.0083 23.5882 64.0083 22.1553C64.0083 19.9135 65.1822 16.2619 67.3422 16.2619C68.7509 16.2619 69.2205 17.4637 69.2205 18.6193C69.2205 21.0228 68.0231 24.7206 65.9335 24.7206Z" fill="black"/><path d="M83.4484 13.2344C80.7718 13.2344 79.2457 15.5686 79.2457 15.5686H79.1988L79.4336 13.4655H75.9118C75.7475 14.8753 75.4188 17.0477 75.1136 18.6655L72.3431 32.9944H76.311L77.4144 27.1935H77.5084C77.5084 27.1935 78.3301 27.7019 79.8327 27.7019C84.5049 27.7019 87.557 22.9873 87.557 18.2264C87.557 15.5917 86.3597 13.2344 83.4484 13.2344ZM79.6449 24.7668C78.6118 24.7668 78.0014 24.189 78.0014 24.189L78.6588 20.5375C79.1284 18.0877 80.4197 16.4699 81.8049 16.4699C83.0257 16.4699 83.4014 17.5793 83.4014 18.6193C83.4014 21.1615 81.8753 24.7668 79.6449 24.7668Z" fill="black"/><path d="M93.2386 7.61816C91.9707 7.61816 90.9612 8.61194 90.9612 9.88305C90.9612 11.0386 91.7125 11.8475 92.8394 11.8475H92.8864C94.1307 11.8475 95.1873 11.0155 95.2107 9.58261C95.2107 8.45016 94.436 7.61816 93.2386 7.61816Z" fill="black"/><path d="M87.6742 27.4245H91.642L94.342 13.5579H90.3507L87.6742 27.4245Z" fill="black"/><path d="M104.461 13.5347H101.691L101.832 12.8876C102.067 11.5471 102.865 10.3685 104.203 10.3685C104.908 10.3685 105.471 10.5765 105.471 10.5765L106.246 7.50267C106.246 7.50267 105.565 7.15601 104.086 7.15601C102.677 7.15601 101.268 7.5489 100.188 8.45023C98.8267 9.58267 98.1928 11.2236 97.8876 12.8876L97.7702 13.5347H95.9154L95.3285 16.4929H97.1832L95.0702 27.4476H99.038L101.151 16.4929H103.898L104.461 13.5347Z" fill="black"/><path d="M114.041 13.5579C114.041 13.5579 111.552 19.7285 110.448 23.1028H110.401C110.331 22.0165 109.415 13.5579 109.415 13.5579H105.236L107.631 26.2921C107.678 26.5694 107.654 26.7543 107.537 26.9392C107.068 27.8174 106.293 28.6725 105.377 29.2965C104.626 29.8281 103.781 30.1748 103.123 30.4059L104.227 33.7339C105.025 33.5721 106.715 32.9019 108.124 31.6076C109.932 29.9436 111.622 27.3552 113.336 23.8423L118.196 13.5579H114.041Z" fill="black"/></svg>