<svg xmlns="http://www.w3.org/2000/svg" aria-label="TikTok logo" viewBox="0 0 200 60"><g clip-path="url(#tiktok)"><path d="m18.679 42.005.193.544a5.236 5.236 0 0 1-.193-.544Zm-8.991-3.888c.34-2.935 1.494-4.58 3.67-6.265 3.113-2.284 7.001-.992 7.001-.992v-7.663c.946-.025 1.891.034 2.826.174v9.86s-3.887-1.291-7 .992c-2.175 1.686-3.331 3.331-3.67 6.267-.01 1.596.276 3.68 1.597 5.483a12.21 12.21 0 0 1-.997-.597c-2.911-2.038-3.442-5.096-3.427-7.259ZM39.243 9.032c-2.14-2.448-2.95-4.92-3.244-6.658h2.695s-.538 4.554 3.377 9.031l.054.06a15.677 15.677 0 0 1-2.885-2.433h.003Z"/><path d="M52.218 15.973v9.665s-3.437-.139-5.984-.816c-3.552-.945-5.836-2.392-5.836-2.392s-1.576-1.034-1.704-1.105v19.953c0 1.11-.291 3.884-1.179 6.198-1.16 3.026-2.95 5.014-3.28 5.418 0 0-2.175 2.687-6.02 4.496-3.464 1.632-6.504 1.59-7.414 1.632 0 0-5.258.217-9.987-2.992a19.96 19.96 0 0 1-2.852-2.39l.024.016c4.731 3.208 9.987 2.991 9.987 2.991.906-.041 3.95 0 7.413-1.631 3.843-1.808 6.019-4.495 6.019-4.495.325-.406 2.125-2.392 3.28-5.42.887-2.314 1.179-5.088 1.179-6.199V18.947c.127.073 1.705 1.106 1.705 1.106s2.283 1.45 5.835 2.393c2.545.674 5.983.816 5.983.816v-7.57c1.179.271 2.176.35 2.829.281h.002Z"/><path d="M49.391 15.691v7.569s-3.437-.14-5.983-.816c-3.552-.944-5.835-2.392-5.835-2.392s-1.578-1.033-1.705-1.106v19.952c0 1.11-.292 3.885-1.178 6.198-1.16 3.028-2.952 5.015-3.281 5.42 0 0-2.176 2.686-6.02 4.495-3.462 1.632-6.504 1.59-7.414 1.632 0 0-5.259.217-9.987-2.992l-.023-.016c-.5-.505-.97-1.038-1.41-1.597-1.509-1.922-2.434-4.188-2.666-4.84v-.007c-.376-1.128-1.163-3.83-1.055-6.45.19-4.624 1.748-7.459 2.16-8.171a19.24 19.24 0 0 1 4.2-5.119 17.49 17.49 0 0 1 4.986-2.95c1.129-.472 2.305-.82 3.509-1.039a17.256 17.256 0 0 1 2.67-.266v7.659s-3.888-1.292-7 .99c-2.177 1.687-3.33 3.33-3.67 6.267-.015 2.162.515 5.22 3.423 7.26.337.224.67.424.997.598a7.815 7.815 0 0 0 1.829 1.771c2.84 1.876 5.22 2.006 8.263.789 2.032-.805 3.553-2.64 4.275-4.676.445-1.269.439-2.549.439-3.87V2.376h7.083c.293 1.736 1.102 4.209 3.244 6.657a15.645 15.645 0 0 0 2.881 2.434c.312.336 1.904 1.999 3.951 3.02 1.056.528 2.169.932 3.317 1.204ZM1.07 44.846v.012l.174.497c-.019-.063-.085-.239-.175-.509Z"/><path d="M14.174 24.496a17.494 17.494 0 0 0-4.981 2.955A19.246 19.246 0 0 0 5 32.585c-.412.708-1.97 3.548-2.16 8.17-.108 2.62.678 5.323 1.054 6.451v.008c.236.642 1.158 2.912 2.668 4.84.439.558.909 1.091 1.408 1.596a19.68 19.68 0 0 1-4.235-3.972c-1.498-1.903-2.42-4.15-2.661-4.815l-.006-.013v-.01C.692 43.717-.096 41.01.013 38.388c.19-4.624 1.75-7.46 2.16-8.17a19.23 19.23 0 0 1 4.194-5.135 17.427 17.427 0 0 1 4.986-2.95c1.131-.47 2.31-.817 3.515-1.034a17.419 17.419 0 0 1 5.498-.081v2.184c-.896.016-1.788.102-2.67.257a16.963 16.963 0 0 0-3.517 1.041l-.005-.004Z"/><path d="M35.997 2.376h-7.083v37.61c0 1.323.006 2.598-.44 3.872-.715 2.033-2.236 3.869-4.26 4.683-3.045 1.223-5.425 1.088-8.264-.788a7.797 7.797 0 0 1-1.828-1.772c2.419 1.291 4.584 1.27 7.266.191 2.016-.815 3.55-2.655 4.26-4.69.447-1.269.44-2.549.44-3.869V0h9.775s-.11.936.134 2.376ZM49.39 13.6v2.091a15.302 15.302 0 0 1-3.317-1.204c-2.047-1.022-3.64-2.685-3.951-3.021.36.238.736.453 1.123.645 2.488 1.243 4.93 1.615 6.145 1.489ZM154.046 33.214a5.438 5.438 0 0 0 .269 1.695 5.969 5.969 0 0 0 5.704 4.201v6.044c-2.941 0-5.048.103-8.25-1.793-3.66-2.163-5.711-6.118-5.711-10.224 0-4.233 2.299-8.477 6.198-10.517 2.826-1.482 4.977-1.493 7.771-1.493v6.04a5.976 5.976 0 0 0-5.974 5.973l-.007.074ZM166.036 33.214a5.372 5.372 0 0 1-.237 1.587 5.97 5.97 0 0 1-5.737 4.31v6.044c2.942 0 5.048.102 8.25-1.794 3.66-2.163 5.717-6.118 5.717-10.224 0-4.233-2.3-8.477-6.198-10.517-2.826-1.482-4.978-1.493-7.771-1.493v6.04a5.976 5.976 0 0 1 5.974 5.973l.002.074Z"/><path d="M67.558 15.643h22.12l-2.044 6.087H81.85v23.3h-7.126v-23.3h-7.165v-6.087Zm58.633 0v6.087h7.168v23.3h7.122v-23.3h5.784l2.049-6.087h-22.123ZM94.494 22.58a3.445 3.445 0 1 0 0-6.89 3.445 3.445 0 0 0 0 6.89ZM91.04 45.026h6.981v-20.01h-6.98v20.01Zm32.112-22.618h-8.166l-7.039 7.046V15.665h-6.938l-.024 29.362h7.008v-7.652l2.182-1.975 6.8 9.626h7.49l-9.853-14.078 8.54-8.54Zm66.998 8.54 8.542-8.54h-8.167l-7.039 7.046V15.665h-6.944l-.022 29.362h7.012v-7.652l2.187-1.975 6.8 9.626h7.483l-9.852-14.078Zm-17.95 2.188c0 6.636-5.452 12.016-12.177 12.016s-12.176-5.38-12.176-12.016c0-6.635 5.452-12.014 12.176-12.014s12.179 5.38 12.179 12.014h-.002Zm-6.204 0a5.977 5.977 0 0 0-3.688-5.519 5.975 5.975 0 0 0-8.145 4.355 5.971 5.971 0 0 0 2.541 6.132A5.977 5.977 0 0 0 166 33.142v-.006h-.003Z"/></g><defs><clipPath id="tiktok"><path d="M0 0h200v59.025H0z"/></clipPath></defs></svg>