<svg xmlns="http://www.w3.org/2000/svg" viewBox="0 0 190 24"><g clip-path="url(#yeti)"><path d="M190 .043c-6.562 0-12.99 0-19.417.015a.867.867 0 0 0-.602.368c-1.925 3.071-3.827 6.154-5.736 9.233l-7.637 12.318c-.394.638-.761 1.291-1.175 1.999 6.605 0 13.1 0 19.595-.017a.878.878 0 0 0 .62-.362c.896-1.414 1.766-2.848 2.634-4.278l5.118-8.42c1.41-2.31 2.842-4.607 4.251-6.916.777-1.279 1.527-2.565 2.349-3.94Zm-190 0c.57.86 1.062 1.624 1.581 2.381 2.775 4.011 5.549 8.025 8.322 12.04a.724.724 0 0 1 .016.638c-1.157 1.962-2.345 3.906-3.517 5.86-.583.972-1.15 1.953-1.776 3.019h.856c6.362 0 12.726-.035 19.088.031 1.192.012 1.902-.262 2.49-1.353 1.088-2.02 2.365-3.943 3.564-5.912-1.06-1.48-2.1-2.93-3.138-4.384-2.817-3.946-5.63-7.895-8.44-11.848a1.01 1.01 0 0 0-.94-.481c-3.895.02-7.789.012-11.684.012L0 .043Zm76.897.05a1.563 1.563 0 0 0-.214-.046c-5.049 0-10.099-.01-15.148.015a1.04 1.04 0 0 0-.73.44 863.526 863.526 0 0 0-5.328 8.687c-2.598 4.275-5.19 8.556-7.776 12.843-.374.616-.735 1.239-1.148 1.937 5.18 0 10.229 0 15.276-.014a.727.727 0 0 0 .51-.304c1.14-1.79 2.265-3.59 3.378-5.397A7482.49 7482.49 0 0 0 73.84 5.053c1-1.636 2.011-3.269 3.06-4.966l-.003.006Zm35.414-.05-3.708 6.305h52.376c.091 0 .197.03.271-.007.233-.116.544-.204.665-.4.589-.922 1.132-1.874 1.687-2.819.591-1.006 1.177-2.017 1.798-3.079h-53.089Zm3.184 23.926h.767c6.811 0 13.621.004 20.432.013.5 0 .75-.189.986-.583 2.224-3.691 4.457-7.379 6.697-11.062.654-1.082 1.304-2.165 2.014-3.347h-.832c-6.268 0-12.536.066-18.802-.045-1.612-.028-2.717.306-3.307 1.836a1.23 1.23 0 0 1-.083.183c-2.604 4.296-5.206 8.592-7.872 13.005ZM57.347.14l-.03-.105h-.65c-4.89 0-9.781.059-14.666-.035-1.518-.028-2.777.406-4.058 1.107-2.786 1.535-5.616 2.994-8.423 4.486-.904.479-1.804.965-2.731 1.461 1.766 2.57 3.492 5.07 5.251 7.625L57.347.14Zm18.71 6.147c.083.025.167.045.252.058 9.17 0 18.339-.004 27.508-.013.246 0 .574-.228.721-.445.663-.983 1.277-1.997 1.902-3.004.572-.922 1.135-1.85 1.715-2.799a1.527 1.527 0 0 0-.21-.044c-9.19 0-18.384.004-27.58.012-.226 0-.52.204-.665.406-.397.54-.74 1.113-1.087 1.681-.844 1.357-1.68 2.724-2.555 4.148Zm-11.124 17.68h17.548c3.374 0 6.747-.009 10.122.013.407 0 .657-.11.87-.455.444-.72.927-1.419 1.388-2.13.732-1.134 1.457-2.272 2.25-3.504h-.918c-8.627 0-17.254.021-25.881-.029-1.07-.006-1.71.256-2.25 1.2-.933 1.64-2.02 3.196-3.129 4.906Zm5.592-9.12c.074.024.15.043.227.055 7.627 0 15.255-.003 22.882-.01a.879.879 0 0 0 .642-.343c1.108-1.8 2.183-3.622 3.34-5.56h-.91c-6.971 0-13.942.023-20.913-.023-1.087-.008-1.803.174-2.362 1.232-.84 1.59-1.904 3.063-2.906 4.649Z" fill="#fff"/><path d="M190 .043c-.815 1.382-1.572 2.668-2.349 3.94-1.409 2.31-2.841 4.606-4.251 6.916-1.712 2.803-3.418 5.61-5.118 8.42-.871 1.43-1.738 2.864-2.635 4.278a.873.873 0 0 1-.619.362c-6.496.02-12.99.017-19.595.017.407-.708.781-1.361 1.175-1.999 2.542-4.107 5.088-8.213 7.637-12.317 1.902-3.08 3.804-6.163 5.736-9.234a.85.85 0 0 1 .601-.368C177.01.032 183.438.043 190 .043ZM0 .043h6.422c3.895 0 7.789.008 11.684-.012a1.016 1.016 0 0 1 .94.482c2.808 3.954 5.621 7.903 8.44 11.847 1.038 1.454 2.079 2.905 3.138 4.384-1.2 1.969-2.472 3.893-3.563 5.913-.588 1.082-1.3 1.362-2.49 1.352-6.363-.066-12.727-.03-19.089-.03h-.85c.627-1.067 1.194-2.048 1.777-3.019 1.172-1.955 2.36-3.899 3.517-5.86a.723.723 0 0 0-.016-.638 3068.593 3068.593 0 0 0-8.322-12.04C1.062 1.667.571.896 0 .043ZM76.9.087c-1.05 1.697-2.06 3.33-3.065 4.966-2.71 4.401-5.417 8.802-8.124 13.201a532.009 532.009 0 0 1-3.377 5.397.723.723 0 0 1-.504.304c-5.047.017-10.096.014-15.276.014.407-.698.774-1.32 1.148-1.938 2.592-4.284 5.187-8.568 7.785-12.852C57.25 6.276 59.026 3.38 60.814.492a1.036 1.036 0 0 1 .73-.44c5.05-.024 10.1-.017 15.148-.014.07.011.14.028.208.049ZM112.311.043h53.086c-.62 1.062-1.206 2.073-1.797 3.08-.556.946-1.098 1.893-1.687 2.819-.127.195-.432.282-.665.399-.072.036-.178.007-.272.007h-52.372l3.707-6.305ZM115.495 23.969c2.671-4.413 5.273-8.709 7.872-13.005.032-.059.06-.12.083-.183.592-1.53 1.695-1.864 3.307-1.836 6.266.111 12.534.045 18.801.045h.833c-.71 1.18-1.358 2.265-2.015 3.347-2.233 3.687-4.465 7.374-6.696 11.062-.237.394-.487.585-.987.583-6.81-.02-13.62-.025-20.432-.013h-.766ZM57.346.14 32.034 14.68c-1.76-2.554-3.48-5.056-5.25-7.625.926-.496 1.826-.982 2.73-1.46 2.811-1.489 5.64-2.952 8.423-4.487C39.22.403 40.477-.027 41.996.001c4.89.094 9.782.036 14.672.036h.651l.027.104ZM76.058 6.288c.876-1.424 1.711-2.79 2.555-4.153.352-.568.694-1.146 1.087-1.682.145-.196.439-.399.666-.406C89.557.028 98.75.024 107.946.035c.07.01.14.025.209.045-.58.947-1.143 1.876-1.715 2.799-.623 1.006-1.238 2.021-1.902 3.003-.147.218-.475.445-.721.445-9.17.022-18.34.027-27.508.014a1.895 1.895 0 0 1-.251-.053ZM64.934 23.969c1.101-1.71 2.188-3.266 3.124-4.906.544-.947 1.181-1.206 2.25-1.2 8.627.05 17.255.029 25.882.029h.917c-.792 1.232-1.518 2.37-2.25 3.504-.46.711-.951 1.41-1.389 2.13-.212.344-.457.457-.87.455-3.374-.022-6.747-.012-10.12-.012H64.933ZM70.525 14.848c1.008-1.586 2.072-3.06 2.913-4.649.559-1.058 1.273-1.24 2.361-1.232 6.971.046 13.942.023 20.914.023h.903c-1.157 1.938-2.232 3.76-3.34 5.56a.874.874 0 0 1-.642.342c-7.627.017-15.255.02-22.882.011a1.461 1.461 0 0 1-.227-.055Z" fill="#000"/></g><defs><clipPath id="yeti"><path fill="#fff" d="M0 0h190v24H0z"/></clipPath></defs></svg>